<svg xmlns="http://www.w3.org/2000/svg" xmlns:xlink="http://www.w3.org/1999/xlink" width="500" zoomAndPan="magnify" viewBox="0 0 375 177.000001" height="236" preserveAspectRatio="xMidYMid meet" version="1.0"><defs><g/><clipPath id="id1"><path d="M 1.054688 2 L 373.945312 2 L 373.945312 176.003906 L 1.054688 176.003906 Z M 1.054688 2 " clip-rule="nonzero"/></clipPath><clipPath id="id2"><path d="M 1.054688 0 L 373.945312 0 L 373.945312 176.003906 L 1.054688 176.003906 Z M 1.054688 0 " clip-rule="nonzero"/></clipPath><clipPath id="id3"><path d="M 40.546875 75.765625 L 127.796875 75.765625 L 127.796875 151.386719 L 40.546875 151.386719 Z M 40.546875 75.765625 " clip-rule="nonzero"/></clipPath></defs><g clip-path="url(#id1)"><path fill="rgb(90.979004%, 55.288696%, 41.178894%)" d="M 1.347656 2.117188 L 375.855469 2.117188 L 375.855469 178.242188 L 1.347656 178.242188 L 1.347656 2.117188 " fill-opacity="1" fill-rule="nonzero"/></g><g clip-path="url(#id2)"><path fill="rgb(96.469116%, 92.549133%, 83.529663%)" d="M -0.488281 0.28125 L 374.019531 0.28125 L 374.019531 176.402344 L -0.488281 176.402344 L -0.488281 0.28125 " fill-opacity="1" fill-rule="nonzero"/><path fill="rgb(0%, 0%, 0%)" d="M 374.296875 176.683594 L -0.769531 176.683594 L -0.769531 0 L 374.296875 0 L 374.296875 176.683594 M -0.210938 176.125 L 373.738281 176.125 L 373.738281 0.558594 L -0.210938 0.558594 L -0.210938 176.125 " fill-opacity="1" fill-rule="nonzero"/></g><path fill="rgb(0%, 0%, 0%)" d="M 109.339844 54.863281 C 109.1875 55.65625 109.824219 56.449219 110.765625 56.636719 C 111.703125 56.820312 112.597656 56.324219 112.753906 55.535156 L 112.777344 55.421875 L 109.363281 54.742188 Z M 109.101562 53.910156 C 109.019531 53.964844 108.957031 54.050781 108.9375 54.15625 C 108.917969 54.253906 108.941406 54.347656 108.988281 54.429688 L 113.234375 55.269531 C 113.3125 55.214844 113.375 55.132812 113.394531 55.03125 C 113.414062 54.929688 113.390625 54.832031 113.339844 54.753906 Z M 109.269531 53.148438 C 109.179688 53.203125 109.109375 53.292969 109.085938 53.402344 C 109.066406 53.503906 109.085938 53.597656 109.136719 53.679688 L 113.382812 54.519531 C 113.460938 54.464844 113.519531 54.378906 113.539062 54.28125 C 113.5625 54.171875 113.535156 54.066406 113.472656 53.980469 Z M 114.992188 47.929688 C 115.175781 47.71875 115.195312 47.503906 115.046875 47.292969 C 114.957031 47.160156 114.855469 47.097656 114.734375 47.097656 C 114.707031 47.097656 114.675781 47.101562 114.644531 47.109375 C 114.316406 47.1875 113.929688 47.636719 113.558594 48.480469 C 114.121094 48.476562 114.714844 48.246094 114.992188 47.929688 Z M 117.886719 41.390625 C 117.03125 40.105469 115.734375 39.234375 114.230469 38.941406 C 112.726562 38.644531 111.195312 38.960938 109.921875 39.824219 C 108.644531 40.691406 107.78125 42.007812 107.480469 43.53125 C 107.160156 45.164062 107.550781 46.855469 108.554688 48.175781 L 108.570312 48.203125 C 108.957031 49.117188 109.390625 50.820312 109.484375 51.207031 L 109.503906 51.210938 L 109.507812 51.3125 C 109.523438 51.824219 109.894531 52.265625 110.394531 52.363281 L 110.6875 52.421875 C 110.90625 51.558594 111.25 49.910156 111.371094 48.511719 C 110.96875 48.523438 110.652344 48.34375 110.421875 47.988281 C 110.039062 47.386719 110.035156 46.371094 110.414062 45.96875 C 110.523438 45.851562 110.765625 45.6875 111.136719 45.902344 C 111.605469 46.171875 111.710938 47.121094 111.644531 48.214844 C 111.679688 48.207031 111.710938 48.195312 111.746094 48.183594 C 111.929688 48.121094 112.101562 48.046875 112.257812 47.96875 C 112.09375 47.4375 112.242188 46.726562 112.480469 46.253906 C 112.761719 45.6875 113.148438 45.433594 113.492188 45.601562 C 113.78125 45.742188 113.933594 46.019531 113.914062 46.367188 C 113.882812 46.886719 113.453125 47.574219 112.578125 48.078125 C 112.640625 48.183594 112.730469 48.269531 112.839844 48.324219 C 112.976562 48.394531 113.128906 48.441406 113.289062 48.460938 C 113.730469 47.445312 114.203125 46.957031 114.585938 46.863281 C 114.847656 46.800781 115.082031 46.902344 115.253906 47.148438 C 115.464844 47.453125 115.4375 47.796875 115.179688 48.09375 C 114.84375 48.480469 114.117188 48.757812 113.453125 48.726562 C 113.078125 49.664062 112.730469 51.007812 112.492188 52.777344 L 112.722656 52.820312 C 113.21875 52.921875 113.734375 52.648438 113.9375 52.183594 L 113.976562 52.09375 L 113.996094 52.097656 C 114.226562 51.78125 115.273438 50.359375 115.980469 49.660156 L 116.003906 49.640625 C 117.429688 48.796875 118.429688 47.375 118.75 45.742188 C 119.046875 44.222656 118.738281 42.675781 117.886719 41.390625 Z M 112.484375 47.847656 C 113.257812 47.394531 113.636719 46.796875 113.664062 46.351562 C 113.671875 46.179688 113.632812 45.949219 113.382812 45.828125 C 113.347656 45.8125 113.3125 45.804688 113.277344 45.804688 C 113.0625 45.804688 112.839844 46.089844 112.703125 46.363281 C 112.492188 46.792969 112.363281 47.402344 112.484375 47.847656 Z M 111.011719 46.117188 C 110.929688 46.074219 110.859375 46.050781 110.796875 46.050781 C 110.71875 46.050781 110.652344 46.082031 110.597656 46.140625 C 110.320312 46.433594 110.285156 47.316406 110.632812 47.851562 C 110.769531 48.0625 110.996094 48.277344 111.390625 48.257812 C 111.460938 47.207031 111.390625 46.335938 111.011719 46.117188 Z M 110.933594 52.472656 L 112.246094 52.726562 C 112.484375 50.945312 112.824219 49.628906 113.191406 48.699219 C 113.027344 48.671875 112.871094 48.621094 112.726562 48.550781 C 112.5625 48.464844 112.445312 48.34375 112.359375 48.199219 C 112.195312 48.28125 112.019531 48.355469 111.828125 48.421875 C 111.761719 48.445312 111.695312 48.464844 111.628906 48.480469 C 111.496094 50.15625 111.03125 52.078125 110.933594 52.472656 Z M 118.992188 45.792969 C 118.660156 47.488281 117.621094 48.96875 116.144531 49.847656 C 115.394531 50.597656 114.222656 52.214844 114.160156 52.304688 C 113.980469 52.6875 113.636719 52.957031 113.242188 53.050781 L 113.386719 53.082031 C 113.59375 53.121094 113.726562 53.324219 113.6875 53.527344 C 113.667969 53.621094 113.617188 53.699219 113.546875 53.753906 L 109.273438 52.90625 C 109.230469 52.832031 109.214844 52.742188 109.230469 52.652344 C 109.273438 52.445312 109.472656 52.3125 109.679688 52.351562 L 109.828125 52.378906 C 109.496094 52.144531 109.277344 51.765625 109.257812 51.339844 C 109.234375 51.238281 108.757812 49.292969 108.34375 48.316406 C 107.308594 46.941406 106.902344 45.179688 107.234375 43.480469 C 107.546875 41.894531 108.449219 40.523438 109.78125 39.617188 C 111.109375 38.714844 112.707031 38.386719 114.277344 38.695312 C 115.847656 39.003906 117.203125 39.910156 118.09375 41.25 C 118.984375 42.59375 119.304688 44.203125 118.992188 45.792969 Z M 106.226562 47.511719 L 104.179688 48.851562 L 104.316406 49.066406 L 106.363281 47.722656 Z M 105.992188 51.386719 L 106.179688 51.558594 L 107.832031 49.753906 L 107.648438 49.582031 Z M 105.53125 45.355469 L 103.09375 45.570312 L 103.117188 45.820312 L 105.550781 45.605469 Z M 119.59375 48.421875 L 121.765625 49.550781 L 121.878906 49.328125 L 119.710938 48.199219 Z M 118.15625 50.039062 L 119.539062 52.0625 L 119.746094 51.921875 L 118.367188 49.898438 Z M 116.027344 51.359375 L 116.871094 53.660156 L 117.105469 53.570312 L 116.261719 51.273438 Z M 105.652344 42.9375 L 103.265625 42.398438 L 103.210938 42.644531 L 105.597656 43.183594 Z M 108.097656 39.011719 L 106.714844 36.988281 L 106.507812 37.128906 L 107.890625 39.152344 Z M 110.230469 37.691406 L 109.382812 35.394531 L 109.148438 35.480469 L 109.992188 37.78125 Z M 112.425781 37.175781 L 112.25 34.730469 L 112 34.75 L 112.171875 37.195312 Z M 120.652344 45.933594 L 120.609375 46.179688 L 123.019531 46.59375 L 123.0625 46.347656 Z M 106.542969 40.660156 L 104.371094 39.53125 L 104.253906 39.753906 L 106.425781 40.882812 Z M 120.617188 43.660156 L 123.054688 43.445312 L 123.035156 43.195312 L 120.597656 43.410156 Z M 120.023438 41.578125 L 122.070312 40.234375 L 121.929688 40.023438 L 119.882812 41.367188 Z M 120.253906 37.703125 L 120.070312 37.53125 L 118.414062 39.335938 L 118.597656 39.507812 Z M 117.898438 35.9375 L 117.671875 35.828125 L 116.582031 38.019531 L 116.804688 38.132812 Z M 114.671875 37.328125 L 114.425781 37.28125 L 114.902344 34.875 L 115.148438 34.925781 L 114.671875 37.328125 " fill-opacity="1" fill-rule="nonzero"/><path fill="rgb(0%, 0%, 0%)" d="M 90.332031 88.398438 L 90.425781 88.480469 C 93.785156 84.382812 92.941406 75.636719 92.933594 75.546875 L 92.808594 75.5625 C 92.816406 75.648438 93.652344 84.339844 90.332031 88.398438 Z M 91.796875 75.125 L 91.667969 75.128906 C 91.671875 75.214844 91.734375 83.859375 87.800781 85.777344 L 87.855469 85.890625 C 91.863281 83.9375 91.796875 75.214844 91.796875 75.125 Z M 81.980469 90.105469 L 82 89.980469 C 76.730469 89.25 73.472656 78.371094 73.441406 78.261719 L 73.320312 78.296875 C 73.351562 78.40625 76.632812 89.363281 81.980469 90.105469 Z M 83.171875 86.609375 C 83.453125 86.609375 83.734375 86.585938 84.015625 86.542969 L 83.996094 86.417969 C 77.933594 87.375 74.417969 77.617188 74.382812 77.519531 L 74.265625 77.558594 C 74.273438 77.585938 75.160156 80.074219 76.792969 82.410156 C 78.726562 85.175781 80.914062 86.609375 83.171875 86.609375 Z M 94.675781 82 L 94.550781 82.011719 L 97.261719 114.085938 L 97.386719 114.074219 Z M 92.429688 90.605469 L 94.675781 118.03125 L 92.617188 121.417969 L 89.769531 87.746094 L 89.644531 87.757812 L 92.523438 121.8125 L 94.792969 118.078125 L 94.804688 118.0625 L 92.554688 90.59375 Z M 82.605469 89.097656 L 85.28125 123.753906 L 85.40625 123.746094 L 82.730469 89.085938 Z M 80.394531 92.738281 L 82.59375 122.921875 L 80.171875 120.304688 L 77.398438 89.5 L 77.273438 89.511719 L 80.050781 120.335938 L 80.050781 120.359375 L 82.742188 123.273438 L 80.523438 92.726562 Z M 74.386719 84.316406 L 76.929688 112.863281 L 76.804688 112.875 L 74.261719 84.328125 L 74.386719 84.316406 " fill-opacity="1" fill-rule="nonzero"/><path fill="rgb(0%, 0%, 0%)" d="M 89.519531 123.25 C 89.519531 123.546875 89.277344 123.785156 88.984375 123.785156 C 88.6875 123.785156 88.449219 123.546875 88.449219 123.25 C 88.449219 122.957031 88.6875 122.714844 88.984375 122.714844 C 89.277344 122.714844 89.519531 122.957031 89.519531 123.25 Z M 89.035156 117.152344 C 89.035156 117.445312 88.796875 117.6875 88.503906 117.6875 C 88.210938 117.6875 87.96875 117.445312 87.96875 117.152344 C 87.96875 116.855469 88.210938 116.617188 88.503906 116.617188 C 88.796875 116.617188 89.035156 116.855469 89.035156 117.152344 Z M 88.550781 111.050781 C 88.550781 111.347656 88.3125 111.585938 88.019531 111.585938 C 87.722656 111.585938 87.484375 111.347656 87.484375 111.050781 C 87.484375 110.757812 87.722656 110.519531 88.019531 110.519531 C 88.3125 110.519531 88.550781 110.757812 88.550781 111.050781 Z M 88.066406 104.953125 C 88.066406 105.25 87.828125 105.488281 87.53125 105.488281 C 87.238281 105.488281 87 105.25 87 104.953125 C 87 104.65625 87.238281 104.417969 87.53125 104.417969 C 87.828125 104.417969 88.066406 104.65625 88.066406 104.953125 Z M 87.542969 98.855469 C 87.542969 99.148438 87.304688 99.390625 87.011719 99.390625 C 86.714844 99.390625 86.476562 99.148438 86.476562 98.855469 C 86.476562 98.558594 86.714844 98.320312 87.011719 98.320312 C 87.304688 98.320312 87.542969 98.558594 87.542969 98.855469 Z M 87.074219 92.753906 C 87.074219 93.050781 86.835938 93.289062 86.539062 93.289062 C 86.246094 93.289062 86.007812 93.050781 86.007812 92.753906 C 86.007812 92.460938 86.246094 92.222656 86.539062 92.222656 C 86.835938 92.222656 87.074219 92.460938 87.074219 92.753906 Z M 90.160156 126.414062 L 88.417969 126.898438 L 85.078125 84.019531 L 86.550781 84.019531 L 86.578125 84.378906 L 86.480469 84.273438 L 86.300781 84.449219 L 86.613281 84.769531 Z M 94.097656 75.511719 L 93.863281 75.597656 C 95.589844 80.394531 93.222656 89.277344 92.808594 90.742188 L 86.855469 84.660156 L 86.777344 83.765625 L 84.808594 83.765625 L 84.914062 85.109375 L 84.835938 85.0625 L 80.425781 92.542969 C 73.738281 86.929688 72.839844 78.617188 72.832031 78.535156 L 72.585938 78.558594 C 72.59375 78.644531 73.507812 87.148438 80.378906 92.828125 L 80.492188 92.921875 L 84.933594 85.390625 L 88.179688 127.070312 L 88.191406 127.21875 L 90.425781 126.601562 L 86.886719 85.050781 L 92.929688 91.226562 L 92.992188 91.019531 C 93.019531 90.917969 96 80.800781 94.097656 75.511719 " fill-opacity="1" fill-rule="nonzero"/><g clip-path="url(#id3)"><path fill="rgb(90.979004%, 55.288696%, 41.178894%)" d="M 72.855469 151.1875 C 70.695312 151.019531 68.652344 150.757812 66.761719 150.453125 C 55.109375 148.570312 41.105469 137.679688 40.566406 131.089844 C 40.03125 124.5 49.515625 97.515625 49.515625 97.515625 C 49.515625 97.515625 48.886719 86.222656 49.515625 85.953125 C 50.140625 85.683594 54.792969 85.953125 54.792969 85.953125 C 54.984375 85.933594 55.1875 85.902344 55.402344 85.863281 C 55.3125 86.457031 54.359375 93.390625 56.332031 105.242188 C 57.242188 110.71875 58.890625 117.816406 61.832031 126.257812 C 55.859375 121.011719 51.007812 120.441406 50.957031 120.4375 L 50.929688 120.699219 C 50.980469 120.703125 55.933594 121.285156 62.003906 126.757812 L 62.007812 126.757812 C 64.554688 133.984375 68.054688 142.183594 72.855469 151.1875 Z M 118.695312 95.023438 C 114.925781 95.023438 111.867188 93.042969 111.867188 90.597656 C 111.867188 88.152344 114.925781 86.171875 118.695312 86.171875 C 122.464844 86.171875 125.523438 88.152344 125.523438 90.597656 C 125.523438 93.042969 122.464844 95.023438 118.695312 95.023438 Z M 107.167969 94.59375 C 107.105469 94.832031 100.5625 118.40625 90.472656 127.648438 L 90.292969 127.453125 C 100.003906 118.5625 106.425781 96.265625 106.890625 94.617188 L 100.777344 90.832031 L 104.535156 87.730469 L 97.183594 77.695312 L 97.394531 77.539062 L 104.894531 87.773438 L 101.226562 90.800781 L 107.195312 94.5 Z M 121.558594 85.128906 C 116.257812 83.890625 116.980469 77.296875 116.980469 77.296875 L 109.546875 78.175781 C 109.546875 78.175781 100.230469 76.882812 94.496094 75.929688 C 96.261719 81.15625 98.816406 91.519531 96.828125 103.792969 C 93.945312 121.542969 88.714844 126.203125 88.714844 126.203125 C 88.714844 126.203125 81.1875 120.375 75.90625 106.480469 C 72.261719 96.890625 72.199219 85.242188 72.511719 78.945312 C 67.632812 81.363281 59.722656 85.058594 55.535156 85.839844 L 55.667969 85.863281 C 55.65625 85.933594 54.546875 92.914062 56.59375 105.214844 C 58.300781 115.460938 62.578125 131.394531 73.164062 151.214844 C 78.589844 151.613281 84.734375 151.40625 91.117188 149.785156 L 89.300781 128.71875 C 78.480469 124.976562 65.277344 100.515625 65.144531 100.269531 L 65.101562 100.191406 L 69.0625 95.253906 L 65.09375 94.019531 L 69.160156 81.429688 L 69.410156 81.511719 L 65.425781 93.84375 L 69.507812 95.117188 L 65.417969 100.222656 C 66.246094 101.746094 79.027344 124.984375 89.464844 128.5 L 89.546875 128.527344 L 91.371094 149.71875 C 97.925781 148.015625 104.710938 144.8125 111.199219 139.238281 C 109.019531 137.664062 107.179688 135.535156 106.027344 133.074219 C 103.832031 128.378906 107.9375 103.949219 109.691406 93.511719 C 110.097656 91.09375 110.367188 89.496094 110.402344 89.082031 C 110.582031 86.777344 113.824219 85.757812 113.960938 85.714844 L 114.039062 85.96875 C 114.007812 85.976562 110.832031 86.976562 110.660156 89.101562 C 110.628906 89.53125 110.359375 91.132812 109.949219 93.558594 C 108.203125 103.964844 104.105469 128.34375 106.265625 132.960938 C 107.421875 135.433594 109.277344 137.558594 111.476562 139.113281 C 112.816406 138.789062 121.289062 136.316406 124.375 125.308594 C 127.730469 113.339844 127.796875 90.078125 127.796875 90.078125 C 127.796875 90.078125 126.859375 86.363281 121.558594 85.128906 " fill-opacity="1" fill-rule="nonzero"/></g><path fill="rgb(100%, 100%, 100%)" d="M 94.03125 140.246094 C 93.082031 140.246094 92.3125 141.015625 92.3125 141.964844 C 92.3125 142.914062 93.082031 143.683594 94.03125 143.683594 C 94.976562 143.683594 95.746094 142.914062 95.746094 141.964844 C 95.746094 141.015625 94.976562 140.246094 94.03125 140.246094 Z M 124.445312 100.921875 C 123.5625 101.265625 122.789062 102.390625 122.71875 103.433594 C 122.648438 104.480469 123.304688 105.050781 124.191406 104.707031 C 125.074219 104.367188 125.847656 103.242188 125.917969 102.195312 C 125.988281 101.148438 125.332031 100.578125 124.445312 100.921875 Z M 125.144531 95.757812 C 124.261719 96.097656 123.488281 97.222656 123.417969 98.269531 C 123.347656 99.3125 124.007812 99.882812 124.890625 99.542969 C 125.773438 99.199219 126.546875 98.074219 126.621094 97.027344 C 126.691406 95.984375 126.03125 95.414062 125.144531 95.757812 Z M 94.738281 130.949219 C 94.738281 131.898438 93.972656 132.667969 93.023438 132.667969 C 92.074219 132.667969 91.308594 131.898438 91.308594 130.949219 C 91.308594 130 92.074219 129.230469 93.023438 129.230469 C 93.972656 129.230469 94.738281 130 94.738281 130.949219 " fill-opacity="1" fill-rule="nonzero"/><path fill="rgb(100%, 71.759033%, 51.759338%)" d="M 95.277344 66.679688 C 94.023438 71.476562 93.394531 73.226562 90.714844 74.480469 L 90.738281 75.691406 C 90.738281 75.691406 89.953125 84.382812 86.195312 85.015625 C 82.4375 85.640625 78.097656 83.757812 75.90625 77.929688 C 73.714844 72.101562 72.371094 68.472656 72.371094 68.472656 L 70.40625 66.992188 C 70.40625 66.992188 67.496094 68.117188 64.589844 64.621094 C 62.527344 62.140625 62.128906 59.710938 63.507812 58.328125 C 64.074219 57.757812 64.9375 57.367188 66.113281 57.222656 C 66.113281 57.222656 67.070312 56.078125 68.5625 54.578125 C 69.597656 53.542969 71.210938 52.933594 71.613281 50.007812 C 72.597656 42.835938 72.910156 42.699219 73.535156 42.476562 C 73.535156 42.476562 73.804688 38.578125 78.144531 40.191406 C 82.480469 41.804688 92.007812 43.597656 87.40625 39.65625 C 87.550781 39.738281 92.160156 42.503906 93.128906 47.140625 C 93.1875 47.414062 93.242188 47.6875 93.296875 47.953125 C 94.160156 52.21875 94.5625 55.15625 95.277344 56.503906 C 96.039062 57.941406 96.53125 61.886719 95.277344 66.679688 " fill-opacity="1" fill-rule="nonzero"/><path fill="rgb(0%, 0%, 0%)" d="M 92.871094 65.839844 C 92.546875 67.476562 91.765625 69.257812 90.019531 70.511719 C 85.902344 73.472656 78.746094 66.589844 80.066406 66.703125 C 81.386719 66.816406 84.585938 66.5 87.902344 65.46875 C 89.984375 64.820312 91.425781 63.488281 92.207031 62.582031 C 92.671875 62.042969 92.90625 61.660156 92.90625 61.660156 C 92.90625 61.660156 93.3125 63.613281 92.871094 65.839844 " fill-opacity="1" fill-rule="nonzero"/><path fill="rgb(100%, 100%, 100%)" d="M 92.335938 64.445312 C 92.464844 63.65625 92.332031 62.988281 92.207031 62.582031 C 91.425781 63.488281 89.984375 64.820312 87.902344 65.46875 C 84.585938 66.5 81.386719 66.816406 80.066406 66.703125 C 78.746094 66.589844 85.902344 73.472656 90.019531 70.511719 C 91.765625 69.257812 92.546875 67.476562 92.871094 65.839844 C 92.699219 64.238281 92.335938 64.445312 92.335938 64.445312 Z M 82.414062 57.777344 C 82.414062 57.777344 80.050781 55.144531 76.921875 55.816406 C 73.792969 56.488281 74.597656 61.171875 78.488281 60.847656 C 82.382812 60.523438 82.414062 57.777344 82.414062 57.777344 Z M 88.542969 55.921875 C 88.542969 55.921875 88.242188 52.125 90.523438 51.046875 C 92.804688 49.972656 93.914062 52.5625 93.375 54.277344 C 92.839844 55.988281 90.960938 57.671875 88.542969 55.921875 " fill-opacity="1" fill-rule="nonzero"/><path fill="rgb(0%, 0%, 0%)" d="M 92.546875 64.332031 L 92.445312 64.261719 C 92.40625 64.3125 88.878906 69.492188 82.675781 68.234375 L 82.648438 68.355469 C 83.332031 68.492188 83.980469 68.554688 84.597656 68.554688 C 89.667969 68.554688 92.515625 64.378906 92.546875 64.332031 Z M 88.394531 75.242188 C 90.113281 75.074219 90.761719 74.601562 90.789062 74.578125 L 90.640625 74.378906 C 90.632812 74.382812 90.007812 74.832031 88.371094 74.992188 C 86.695312 75.15625 78.621094 73.011719 77.707031 72.519531 C 76.734375 71.996094 74.066406 69.375 74.039062 69.347656 L 73.863281 69.527344 C 73.972656 69.636719 76.585938 72.203125 77.589844 72.742188 C 78.570312 73.269531 86.066406 75.253906 88.171875 75.253906 C 88.253906 75.253906 88.328125 75.25 88.394531 75.242188 Z M 87.976562 60.9375 L 87.824219 60.738281 L 86.253906 61.941406 L 86.40625 62.140625 Z M 90.546875 58.738281 L 90.542969 58.625 L 90.425781 58.621094 C 89.515625 58.59375 87.714844 56.453125 87.101562 55.632812 L 86.902344 55.78125 C 86.992188 55.902344 89.0625 58.65625 90.300781 58.859375 C 90.308594 59.289062 90.273438 60.929688 89.402344 61.960938 L 89.589844 62.121094 C 90.664062 60.855469 90.554688 58.824219 90.546875 58.738281 Z M 68.902344 61.578125 C 66.734375 59.609375 64.769531 59.886719 64.6875 59.898438 L 64.726562 60.148438 C 64.742188 60.144531 66.652344 59.878906 68.734375 61.765625 Z M 77.273438 55.429688 C 74.339844 56.148438 74.902344 58.613281 74.902344 58.613281 C 74.902344 58.613281 75.671875 56.046875 77.675781 55.832031 C 78.070312 55.792969 78.492188 55.84375 78.921875 55.949219 C 78.507812 56.265625 77.992188 56.9375 78.234375 58.285156 C 78.613281 60.425781 81.324219 60.808594 81.097656 56.898438 C 81.875 57.351562 82.414062 57.777344 82.414062 57.777344 C 82.414062 57.777344 80.203125 54.714844 77.273438 55.429688 Z M 92.855469 51.613281 C 93.011719 52.117188 93.054688 52.75 92.949219 53.457031 C 92.660156 55.429688 90.625 55.765625 90.265625 53.457031 C 90.066406 52.179688 90.351562 51.410156 90.640625 50.976562 C 90.601562 51 90.5625 51.023438 90.523438 51.046875 C 88.878906 52.128906 88.53125 55.632812 88.53125 55.632812 C 88.53125 55.632812 87.648438 52.382812 90.199219 50.65625 C 92.75 48.929688 93.359375 52.359375 93.359375 52.359375 C 93.359375 52.359375 93.175781 51.992188 92.855469 51.613281 " fill-opacity="1" fill-rule="nonzero"/><path fill="rgb(0%, 0%, 0%)" d="M 69.703125 59.210938 C 70.734375 59.933594 71.433594 60.585938 71.433594 60.585938 L 70.839844 58.496094 Z M 94.90625 41.125 C 94.34375 39.394531 92.761719 38.625 90.566406 39.019531 C 87.335938 39.597656 84.570312 38.675781 81.898438 37.785156 C 79.90625 37.117188 78.023438 36.488281 76 36.460938 C 74.710938 36.441406 73.789062 36.820312 73.257812 37.585938 C 72.371094 38.855469 72.808594 40.8125 73.058594 41.652344 C 72.316406 41.042969 70.652344 39.292969 71.855469 36.648438 C 73.371094 33.316406 80.992188 34.59375 81.066406 34.605469 L 81.113281 34.347656 C 80.789062 34.289062 73.21875 33.023438 71.617188 36.539062 C 70.335938 39.355469 72.113281 41.214844 72.902344 41.863281 C 71.988281 41.503906 71.132812 41.535156 70.359375 41.96875 C 67.894531 43.347656 67.078125 48.230469 67.042969 48.4375 L 67.304688 48.480469 C 67.3125 48.429688 68.132812 43.515625 70.484375 42.199219 C 71.082031 41.863281 71.734375 41.796875 72.425781 41.984375 C 70.546875 42.488281 70.109375 44.691406 69.648438 47.007812 C 69.28125 48.851562 68.898438 50.761719 67.808594 52.109375 C 67.136719 52.941406 66.390625 53.347656 65.578125 53.316406 C 63.773438 53.253906 62.230469 51.0625 62.214844 51.039062 L 62 51.191406 C 62.066406 51.285156 63.632812 53.511719 65.566406 53.582031 C 65.597656 53.582031 65.628906 53.582031 65.660156 53.582031 C 66.519531 53.582031 67.3125 53.140625 68.011719 52.273438 C 69.144531 50.875 69.53125 48.9375 69.90625 47.058594 C 70.429688 44.429688 70.882812 42.15625 73.277344 42.140625 L 73.574219 42.320312 L 73.441406 41.976562 C 73.429688 41.78125 73.34375 39.613281 75.644531 38.699219 C 78.023438 37.753906 82.417969 41.511719 82.464844 41.550781 L 82.636719 41.351562 C 82.449219 41.191406 78.074219 37.449219 75.546875 38.453125 C 73.863281 39.125 73.371094 40.453125 73.230469 41.285156 C 73 40.382812 72.746094 38.777344 73.472656 37.738281 C 73.953125 37.050781 74.792969 36.707031 75.996094 36.726562 C 77.976562 36.753906 79.839844 37.375 81.8125 38.03125 C 84.519531 38.9375 87.316406 39.867188 90.613281 39.277344 C 93.421875 38.777344 94.351562 40.269531 94.65625 41.207031 C 95.261719 43.058594 94.433594 45.496094 92.949219 46.222656 L 93.066406 46.460938 C 94.652344 45.679688 95.546875 43.085938 94.90625 41.125 Z M 71.542969 33.644531 C 68.832031 34.351562 67.21875 35.382812 66.746094 36.722656 C 66.378906 37.757812 66.828125 38.707031 67.066406 39.105469 C 66.941406 37.007812 68.78125 35.097656 71.542969 33.644531 Z M 96.351562 44.625 C 95.972656 46.429688 94.5 47.425781 93.296875 47.953125 C 93.242188 47.6875 93.1875 47.414062 93.128906 47.140625 C 92.832031 45.722656 92.195312 44.480469 91.449219 43.433594 C 90.558594 43.507812 89.382812 43.777344 87.863281 44.417969 C 83.433594 46.292969 79.183594 43.683594 77.394531 41.808594 C 75.796875 40.140625 74.191406 40.457031 73.867188 42.398438 C 74.0625 41.839844 74.328125 41.507812 74.683594 41.378906 C 75.597656 41.050781 77.015625 42.039062 79.660156 44.230469 C 83.355469 47.296875 87.574219 45.378906 87.617188 45.359375 L 87.726562 45.597656 C 87.703125 45.609375 86.335938 46.230469 84.46875 46.230469 C 82.984375 46.230469 81.183594 45.839844 79.492188 44.433594 C 76.980469 42.351562 75.5625 41.34375 74.773438 41.628906 C 74.375 41.769531 74.109375 42.265625 73.933594 43.1875 L 73.804688 43.164062 L 73.785156 43.160156 C 73.671875 43.144531 73.050781 43.179688 72.308594 45.457031 C 72.113281 46.519531 71.890625 47.984375 71.613281 50.007812 C 71.296875 52.316406 70.613281 53.882812 69.832031 54.949219 L 69.832031 54.953125 C 69.832031 54.953125 67.789062 57.5 66.4375 57.421875 C 66.4375 57.421875 65.726562 57.382812 65.378906 57.355469 C 64.570312 57.550781 63.949219 57.886719 63.507812 58.328125 C 60.519531 57.078125 55.679688 48.542969 59.445312 46.824219 C 63.46875 44.988281 67.09375 39.382812 67.09375 39.382812 L 66.992188 39.464844 C 66.949219 39.410156 65.96875 38.128906 66.496094 36.632812 C 67.03125 35.117188 68.894531 33.980469 72.035156 33.253906 L 72.066406 33.382812 C 73.101562 32.882812 74.25 32.441406 75.460938 32.078125 C 80.378906 30.601562 85.972656 35.53125 88.296875 36.472656 C 90.625 37.410156 93.621094 35.617188 95.410156 36.742188 C 97.199219 37.859375 97.019531 41.445312 96.351562 44.625 Z M 66.769531 57.660156 C 67.257812 57.824219 68.121094 58.175781 68.121094 58.175781 L 70.285156 56.695312 L 69.878906 55.109375 C 69.566406 55.527344 68.078125 57.414062 66.769531 57.660156 Z M 69.511719 59.019531 L 70.734375 58.253906 L 70.398438 56.9375 L 68.324219 58.355469 C 68.777344 58.601562 69.511719 59.019531 69.511719 59.019531 Z M 92.476562 47.054688 C 92.339844 46.851562 90.148438 45.394531 89.792969 45.460938 C 89.433594 45.53125 88.605469 45.574219 86.617188 48.109375 C 86.617188 48.109375 86.257812 50.347656 86.617188 50.347656 C 86.972656 50.347656 89.230469 47.546875 89.726562 47.546875 C 90.128906 47.546875 91.363281 48.183594 91.953125 48.410156 C 92.078125 48.457031 92.175781 48.488281 92.230469 48.488281 C 92.304688 48.488281 92.363281 48.40625 92.410156 48.28125 C 92.550781 47.921875 92.574219 47.203125 92.476562 47.054688 Z M 81.089844 50.371094 C 81.089844 50.371094 80.578125 48.386719 79.835938 48.386719 C 79.101562 48.386719 76.414062 50.90625 75.441406 51.34375 C 74.46875 51.78125 74.035156 55.015625 74.269531 55.382812 C 74.503906 55.75 77.679688 51.480469 81.089844 50.371094 Z M 89.792969 45.460938 C 89.433594 45.53125 88.605469 45.574219 86.617188 48.109375 C 86.617188 48.109375 86.257812 50.347656 86.617188 50.347656 C 86.972656 50.347656 89.230469 47.546875 89.726562 47.546875 C 90.128906 47.546875 91.363281 48.183594 91.953125 48.410156 C 92.078125 48.375 92.234375 48.335938 92.410156 48.28125 C 92.550781 47.921875 92.574219 47.203125 92.476562 47.054688 C 92.339844 46.851562 90.148438 45.394531 89.792969 45.460938 Z M 92.398438 61.726562 C 92.917969 61.34375 93.476562 60.859375 93.878906 60.492188 C 94 60.382812 94.175781 60.535156 94.089844 60.675781 C 93.429688 61.808594 92.058594 64.230469 88.4375 65.742188 C 84.792969 67.261719 80.644531 67.042969 78.753906 66.695312 C 78.597656 66.664062 78.605469 66.425781 78.765625 66.410156 C 80.027344 66.289062 82.203125 65.96875 83.648438 65.144531 C 85.617188 64.023438 88.359375 63.808594 88.777344 63.78125 C 88.8125 63.777344 88.847656 63.761719 88.871094 63.734375 C 90.773438 61.613281 91.4375 62.429688 92.398438 61.726562 " fill-opacity="1" fill-rule="nonzero"/><path fill="rgb(100%, 71.759033%, 51.759338%)" d="M 122.429688 70.816406 C 122.53125 71.65625 125.015625 76.125 125.617188 76.898438 C 126.222656 77.671875 126.890625 79.757812 125.382812 82.246094 C 123.871094 84.730469 122.332031 91.691406 122.332031 91.691406 C 117.398438 93.777344 114.277344 90.011719 114.277344 90.011719 L 113.808594 87.925781 C 113.808594 87.925781 110.417969 83.925781 110.050781 83.21875 C 109.683594 82.511719 107.667969 73.402344 110.050781 73.066406 C 112.433594 72.730469 116.324219 69.4375 116.324219 69.4375 C 116.324219 69.4375 118.605469 61.46875 119.074219 60.058594 C 119.542969 58.648438 120.148438 56.394531 121.859375 55.488281 C 123.570312 54.578125 124.746094 55.25 124.207031 56.328125 C 123.671875 57.402344 120.082031 69.4375 120.082031 69.4375 C 121.996094 68.796875 122.332031 69.972656 122.429688 70.816406 " fill-opacity="1" fill-rule="nonzero"/><path fill="rgb(0%, 0%, 0%)" d="M 121.402344 80.238281 C 121.21875 80.414062 120.945312 80.632812 120.625 80.882812 C 119.28125 81.933594 117.039062 83.695312 117.039062 86.277344 C 117.039062 89.421875 118.390625 90.84375 118.449219 90.902344 L 118.628906 90.730469 C 118.613281 90.714844 117.289062 89.308594 117.289062 86.277344 C 117.289062 83.816406 119.472656 82.101562 120.78125 81.078125 C 121.105469 80.824219 121.386719 80.605469 121.578125 80.417969 C 122.503906 79.523438 124.789062 79.511719 124.8125 79.511719 L 124.8125 79.261719 C 124.714844 79.261719 122.402344 79.273438 121.402344 80.238281 Z M 115.527344 73.917969 C 115.179688 74.289062 114.632812 74.773438 113.90625 75.125 C 113.949219 75.496094 114.074219 76.902344 113.71875 77.972656 C 114.097656 78.332031 116.082031 80.347656 116.449219 83.136719 L 116.199219 83.167969 C 115.808594 80.191406 113.511719 78.125 113.488281 78.101562 L 113.425781 78.046875 L 113.453125 77.964844 C 113.796875 77.011719 113.710938 75.695312 113.667969 75.234375 C 113.214844 75.421875 112.707031 75.554688 112.136719 75.578125 L 112.125 75.328125 C 114.417969 75.230469 115.753906 73.246094 115.765625 73.226562 L 115.769531 73.230469 C 115.894531 72.96875 116.050781 72.773438 116.234375 72.683594 C 116.324219 72.644531 116.425781 72.578125 116.542969 72.5 C 117.066406 71.941406 117.292969 71.394531 117.222656 70.875 C 117.105469 70.050781 116.269531 69.550781 116.261719 69.542969 L 116.386719 69.328125 C 116.425781 69.351562 117.335938 69.894531 117.46875 70.835938 C 117.519531 71.203125 117.449219 71.570312 117.253906 71.941406 C 118.433594 70.945312 119.972656 69.371094 119.992188 69.347656 L 120.171875 69.523438 C 120.054688 69.644531 117.328125 72.4375 116.34375 72.910156 C 115.484375 73.328125 115.375 77.039062 115.734375 77.859375 C 115.976562 78.410156 116.335938 78.664062 116.527344 78.765625 C 116.910156 76.3125 117.917969 74.808594 118.035156 74.644531 C 118.273438 74.300781 121.578125 72.523438 122.238281 72.171875 L 122.355469 72.390625 C 120.464844 73.402344 118.378906 74.582031 118.238281 74.785156 C 118.125 74.949219 117.109375 76.464844 116.753906 78.945312 C 116.808594 79.160156 117.328125 81.019531 118.632812 81.324219 C 118.730469 80.554688 119.183594 77.445312 120.023438 76.992188 C 120.347656 76.816406 120.84375 76.636719 121.421875 76.425781 C 122.410156 76.066406 123.636719 75.621094 124.449219 75.027344 L 124.597656 75.230469 C 123.757812 75.847656 122.507812 76.296875 121.507812 76.664062 C 120.9375 76.867188 120.449219 77.046875 120.140625 77.210938 C 119.472656 77.574219 118.992188 80.421875 118.863281 81.488281 L 118.847656 81.613281 L 118.722656 81.597656 C 117.214844 81.371094 116.625 79.433594 116.519531 79.042969 C 116.335938 78.964844 115.824219 78.6875 115.503906 77.957031 C 115.246094 77.371094 115.179688 75.296875 115.527344 73.917969 " fill-opacity="1" fill-rule="nonzero"/><g fill="rgb(0%, 0%, 0%)" fill-opacity="1"><g transform="translate(135.863163, 67.882733)"><g><path d="M 0 0 L 0 -12.234375 L 2.71875 -12.234375 L 2.71875 -8.15625 L 5.4375 -8.15625 L 5.4375 -12.234375 L 8.15625 -12.234375 L 8.15625 0 L 5.4375 0 L 5.4375 -6.796875 L 2.71875 -6.796875 L 2.71875 0 Z M 0 0 "/></g></g></g><g fill="rgb(0%, 0%, 0%)" fill-opacity="1"><g transform="translate(146.467099, 67.882733)"><g><path d="M 5.4375 -1.359375 L 5.4375 -4.078125 L 2.71875 -4.078125 L 2.71875 -1.359375 Z M 1.359375 0 L 1.359375 -1.359375 L 0 -1.359375 L 0 -4.078125 L 1.359375 -4.078125 L 1.359375 -5.4375 L 5.4375 -5.4375 L 5.4375 -8.15625 L 1.359375 -8.15625 L 1.359375 -9.515625 L 6.796875 -9.515625 L 6.796875 -8.15625 L 8.15625 -8.15625 L 8.15625 0 Z M 1.359375 0 "/></g></g></g><g fill="rgb(0%, 0%, 0%)" fill-opacity="1"><g transform="translate(157.071036, 67.882733)"><g><path d="M 0 0 L 0 -9.515625 L 2.71875 -9.515625 L 2.71875 -6.796875 L 4.078125 -6.796875 L 4.078125 -5.4375 L 2.71875 -5.4375 L 2.71875 0 Z M 4.078125 -6.796875 L 4.078125 -9.515625 L 6.796875 -9.515625 L 6.796875 -6.796875 Z M 4.078125 -6.796875 "/></g></g></g><g fill="rgb(0%, 0%, 0%)" fill-opacity="1"><g transform="translate(166.315505, 67.882733)"><g><path d="M 0 0 L 0 -1.359375 L 4.078125 -1.359375 L 4.078125 -4.078125 L 1.359375 -4.078125 L 1.359375 -5.4375 L 0 -5.4375 L 0 -8.15625 L 1.359375 -8.15625 L 1.359375 -9.515625 L 6.796875 -9.515625 L 6.796875 -8.15625 L 2.71875 -8.15625 L 2.71875 -5.4375 L 5.4375 -5.4375 L 5.4375 -4.078125 L 6.796875 -4.078125 L 6.796875 -1.359375 L 5.4375 -1.359375 L 5.4375 0 Z M 0 0 "/></g></g></g><g fill="rgb(0%, 0%, 0%)" fill-opacity="1"><g transform="translate(175.559972, 67.882733)"><g><path d="M 0 0 L 0 -13.59375 L 2.71875 -13.59375 L 2.71875 -9.515625 L 6.796875 -9.515625 L 6.796875 -8.15625 L 8.15625 -8.15625 L 8.15625 0 L 5.4375 0 L 5.4375 -8.15625 L 2.71875 -8.15625 L 2.71875 0 Z M 0 0 "/></g></g></g><g fill="rgb(0%, 0%, 0%)" fill-opacity="1"><g transform="translate(186.163907, 67.882733)"><g/></g></g><g fill="rgb(0%, 0%, 0%)" fill-opacity="1"><g transform="translate(191.329966, 67.882733)"><g><path d="M 1.359375 0 L 1.359375 -1.359375 L 0 -1.359375 L 0 -2.71875 L 2.71875 -2.71875 L 2.71875 -1.359375 L 5.4375 -1.359375 L 5.4375 -5.4375 L 1.359375 -5.4375 L 1.359375 -6.796875 L 0 -6.796875 L 0 -10.875 L 1.359375 -10.875 L 1.359375 -12.234375 L 6.796875 -12.234375 L 6.796875 -10.875 L 8.15625 -10.875 L 8.15625 -9.515625 L 5.4375 -9.515625 L 5.4375 -10.875 L 2.71875 -10.875 L 2.71875 -6.796875 L 6.796875 -6.796875 L 6.796875 -5.4375 L 8.15625 -5.4375 L 8.15625 -1.359375 L 6.796875 -1.359375 L 6.796875 0 Z M 1.359375 0 "/></g></g></g><g fill="rgb(0%, 0%, 0%)" fill-opacity="1"><g transform="translate(201.933901, 67.882733)"><g><path d="M 0 0 L 0 -13.59375 L 2.71875 -13.59375 L 2.71875 -9.515625 L 6.796875 -9.515625 L 6.796875 -8.15625 L 8.15625 -8.15625 L 8.15625 0 L 5.4375 0 L 5.4375 -8.15625 L 2.71875 -8.15625 L 2.71875 0 Z M 0 0 "/></g></g></g><g fill="rgb(0%, 0%, 0%)" fill-opacity="1"><g transform="translate(212.537836, 67.882733)"><g><path d="M 5.4375 -1.359375 L 5.4375 -4.078125 L 2.71875 -4.078125 L 2.71875 -1.359375 Z M 1.359375 0 L 1.359375 -1.359375 L 0 -1.359375 L 0 -4.078125 L 1.359375 -4.078125 L 1.359375 -5.4375 L 5.4375 -5.4375 L 5.4375 -8.15625 L 1.359375 -8.15625 L 1.359375 -9.515625 L 6.796875 -9.515625 L 6.796875 -8.15625 L 8.15625 -8.15625 L 8.15625 0 Z M 1.359375 0 "/></g></g></g><g fill="rgb(0%, 0%, 0%)" fill-opacity="1"><g transform="translate(223.141771, 67.882733)"><g><path d="M 0 0 L 0 -9.515625 L 2.71875 -9.515625 L 2.71875 -6.796875 L 4.078125 -6.796875 L 4.078125 -5.4375 L 2.71875 -5.4375 L 2.71875 0 Z M 4.078125 -6.796875 L 4.078125 -9.515625 L 6.796875 -9.515625 L 6.796875 -6.796875 Z M 4.078125 -6.796875 "/></g></g></g><g fill="rgb(0%, 0%, 0%)" fill-opacity="1"><g transform="translate(232.386237, 67.882733)"><g><path d="M 0 0 L 0 -9.515625 L 9.515625 -9.515625 L 9.515625 -8.15625 L 10.875 -8.15625 L 10.875 0 L 8.15625 0 L 8.15625 -8.15625 L 6.796875 -8.15625 L 6.796875 0 L 4.078125 0 L 4.078125 -8.15625 L 2.71875 -8.15625 L 2.71875 0 Z M 0 0 "/></g></g></g><g fill="rgb(0%, 0%, 0%)" fill-opacity="1"><g transform="translate(245.709116, 67.882733)"><g><path d="M 5.4375 -1.359375 L 5.4375 -4.078125 L 2.71875 -4.078125 L 2.71875 -1.359375 Z M 1.359375 0 L 1.359375 -1.359375 L 0 -1.359375 L 0 -4.078125 L 1.359375 -4.078125 L 1.359375 -5.4375 L 5.4375 -5.4375 L 5.4375 -8.15625 L 1.359375 -8.15625 L 1.359375 -9.515625 L 6.796875 -9.515625 L 6.796875 -8.15625 L 8.15625 -8.15625 L 8.15625 0 Z M 1.359375 0 "/></g></g></g><g fill="rgb(0%, 0%, 0%)" fill-opacity="1"><g transform="translate(135.863163, 95.185407)"><g><path d="M 0.796875 0 L 0.796875 -0.796875 L 0 -0.796875 L 0 -1.59375 L 1.59375 -1.59375 L 1.59375 -0.796875 L 3.203125 -0.796875 L 3.203125 -3.203125 L 0.796875 -3.203125 L 0.796875 -4 L 0 -4 L 0 -6.40625 L 0.796875 -6.40625 L 0.796875 -7.203125 L 4 -7.203125 L 4 -6.40625 L 4.796875 -6.40625 L 4.796875 -5.59375 L 3.203125 -5.59375 L 3.203125 -6.40625 L 1.59375 -6.40625 L 1.59375 -4 L 4 -4 L 4 -3.203125 L 4.796875 -3.203125 L 4.796875 -0.796875 L 4 -0.796875 L 4 0 Z M 0.796875 0 "/></g></g></g><g fill="rgb(0%, 0%, 0%)" fill-opacity="1"><g transform="translate(142.101003, 95.185407)"><g><path d="M 3.203125 -0.796875 L 3.203125 -4.796875 L 1.59375 -4.796875 L 1.59375 -0.796875 Z M 0.796875 0 L 0.796875 -0.796875 L 0 -0.796875 L 0 -4.796875 L 0.796875 -4.796875 L 0.796875 -5.59375 L 4 -5.59375 L 4 -4.796875 L 4.796875 -4.796875 L 4.796875 -0.796875 L 4 -0.796875 L 4 0 Z M 0.796875 0 "/></g></g></g><g fill="rgb(0%, 0%, 0%)" fill-opacity="1"><g transform="translate(148.338843, 95.185407)"><g><path d="M 0 0 L 0 -7.203125 L 0.796875 -7.203125 L 0.796875 -8 L 3.203125 -8 L 3.203125 -7.203125 L 1.59375 -7.203125 L 1.59375 -5.59375 L 3.203125 -5.59375 L 3.203125 -4.796875 L 1.59375 -4.796875 L 1.59375 0 Z M 0 0 "/></g></g></g><g fill="rgb(0%, 0%, 0%)" fill-opacity="1"><g transform="translate(152.977237, 95.185407)"><g><path d="M 0.796875 0 L 0.796875 -0.796875 L 0 -0.796875 L 0 -7.203125 L 1.59375 -7.203125 L 1.59375 -5.59375 L 3.203125 -5.59375 L 3.203125 -4.796875 L 1.59375 -4.796875 L 1.59375 -0.796875 L 3.203125 -0.796875 L 3.203125 0 Z M 0.796875 0 "/></g></g></g><g fill="rgb(0%, 0%, 0%)" fill-opacity="1"><g transform="translate(157.615631, 95.185407)"><g><path d="M 0 0 L 0 -5.59375 L 1.59375 -5.59375 L 1.59375 -0.796875 L 2.40625 -0.796875 L 2.40625 -5.59375 L 4 -5.59375 L 4 -0.796875 L 4.796875 -0.796875 L 4.796875 -5.59375 L 6.40625 -5.59375 L 6.40625 -0.796875 L 5.59375 -0.796875 L 5.59375 0 Z M 0 0 "/></g></g></g><g fill="rgb(0%, 0%, 0%)" fill-opacity="1"><g transform="translate(165.452917, 95.185407)"><g><path d="M 3.203125 -0.796875 L 3.203125 -2.40625 L 1.59375 -2.40625 L 1.59375 -0.796875 Z M 0.796875 0 L 0.796875 -0.796875 L 0 -0.796875 L 0 -2.40625 L 0.796875 -2.40625 L 0.796875 -3.203125 L 3.203125 -3.203125 L 3.203125 -4.796875 L 0.796875 -4.796875 L 0.796875 -5.59375 L 4 -5.59375 L 4 -4.796875 L 4.796875 -4.796875 L 4.796875 0 Z M 0.796875 0 "/></g></g></g><g fill="rgb(0%, 0%, 0%)" fill-opacity="1"><g transform="translate(171.690757, 95.185407)"><g><path d="M 0 0 L 0 -5.59375 L 1.59375 -5.59375 L 1.59375 -4 L 2.40625 -4 L 2.40625 -3.203125 L 1.59375 -3.203125 L 1.59375 0 Z M 2.40625 -4 L 2.40625 -5.59375 L 4 -5.59375 L 4 -4 Z M 2.40625 -4 "/></g></g></g><g fill="rgb(0%, 0%, 0%)" fill-opacity="1"><g transform="translate(177.128874, 95.185407)"><g><path d="M 3.203125 -3.203125 L 3.203125 -4.796875 L 1.59375 -4.796875 L 1.59375 -3.203125 Z M 0.796875 0 L 0.796875 -0.796875 L 0 -0.796875 L 0 -4.796875 L 0.796875 -4.796875 L 0.796875 -5.59375 L 4 -5.59375 L 4 -4.796875 L 4.796875 -4.796875 L 4.796875 -2.40625 L 1.59375 -2.40625 L 1.59375 -0.796875 L 4 -0.796875 L 4 0 Z M 0.796875 0 "/></g></g></g><g fill="rgb(0%, 0%, 0%)" fill-opacity="1"><g transform="translate(183.366715, 95.185407)"><g/></g></g><g fill="rgb(0%, 0%, 0%)" fill-opacity="1"><g transform="translate(186.405662, 95.185407)"><g><path d="M 3.203125 -3.203125 L 3.203125 -4.796875 L 1.59375 -4.796875 L 1.59375 -3.203125 Z M 0.796875 0 L 0.796875 -0.796875 L 0 -0.796875 L 0 -4.796875 L 0.796875 -4.796875 L 0.796875 -5.59375 L 4 -5.59375 L 4 -4.796875 L 4.796875 -4.796875 L 4.796875 -2.40625 L 1.59375 -2.40625 L 1.59375 -0.796875 L 4 -0.796875 L 4 0 Z M 0.796875 0 "/></g></g></g><g fill="rgb(0%, 0%, 0%)" fill-opacity="1"><g transform="translate(192.643502, 95.185407)"><g><path d="M 0 0 L 0 -5.59375 L 4 -5.59375 L 4 -4.796875 L 4.796875 -4.796875 L 4.796875 0 L 3.203125 0 L 3.203125 -4.796875 L 1.59375 -4.796875 L 1.59375 0 Z M 0 0 "/></g></g></g><g fill="rgb(0%, 0%, 0%)" fill-opacity="1"><g transform="translate(198.881343, 95.185407)"><g><path d="M 3.203125 -0.796875 L 3.203125 -4.796875 L 1.59375 -4.796875 L 1.59375 -0.796875 Z M 0.796875 2.40625 L 0.796875 1.59375 L 3.203125 1.59375 L 3.203125 0 L 0.796875 0 L 0.796875 -0.796875 L 0 -0.796875 L 0 -4.796875 L 0.796875 -4.796875 L 0.796875 -5.59375 L 4.796875 -5.59375 L 4.796875 1.59375 L 4 1.59375 L 4 2.40625 Z M 0.796875 2.40625 "/></g></g></g><g fill="rgb(0%, 0%, 0%)" fill-opacity="1"><g transform="translate(205.119183, 95.185407)"><g><path d="M 0.796875 0 L 0.796875 -4.796875 L 0 -4.796875 L 0 -5.59375 L 2.40625 -5.59375 L 2.40625 0 Z M 0.796875 -6.40625 L 0.796875 -8 L 2.40625 -8 L 2.40625 -6.40625 Z M 0.796875 -6.40625 "/></g></g></g><g fill="rgb(0%, 0%, 0%)" fill-opacity="1"><g transform="translate(208.957854, 95.185407)"><g><path d="M 0 0 L 0 -5.59375 L 4 -5.59375 L 4 -4.796875 L 4.796875 -4.796875 L 4.796875 0 L 3.203125 0 L 3.203125 -4.796875 L 1.59375 -4.796875 L 1.59375 0 Z M 0 0 "/></g></g></g><g fill="rgb(0%, 0%, 0%)" fill-opacity="1"><g transform="translate(215.195694, 95.185407)"><g><path d="M 3.203125 -3.203125 L 3.203125 -4.796875 L 1.59375 -4.796875 L 1.59375 -3.203125 Z M 0.796875 0 L 0.796875 -0.796875 L 0 -0.796875 L 0 -4.796875 L 0.796875 -4.796875 L 0.796875 -5.59375 L 4 -5.59375 L 4 -4.796875 L 4.796875 -4.796875 L 4.796875 -2.40625 L 1.59375 -2.40625 L 1.59375 -0.796875 L 4 -0.796875 L 4 0 Z M 0.796875 0 "/></g></g></g><g fill="rgb(0%, 0%, 0%)" fill-opacity="1"><g transform="translate(221.433534, 95.185407)"><g><path d="M 3.203125 -3.203125 L 3.203125 -4.796875 L 1.59375 -4.796875 L 1.59375 -3.203125 Z M 0.796875 0 L 0.796875 -0.796875 L 0 -0.796875 L 0 -4.796875 L 0.796875 -4.796875 L 0.796875 -5.59375 L 4 -5.59375 L 4 -4.796875 L 4.796875 -4.796875 L 4.796875 -2.40625 L 1.59375 -2.40625 L 1.59375 -0.796875 L 4 -0.796875 L 4 0 Z M 0.796875 0 "/></g></g></g><g fill="rgb(0%, 0%, 0%)" fill-opacity="1"><g transform="translate(227.671374, 95.185407)"><g><path d="M 0 0 L 0 -5.59375 L 1.59375 -5.59375 L 1.59375 -4 L 2.40625 -4 L 2.40625 -3.203125 L 1.59375 -3.203125 L 1.59375 0 Z M 2.40625 -4 L 2.40625 -5.59375 L 4 -5.59375 L 4 -4 Z M 2.40625 -4 "/></g></g></g><g fill="rgb(0%, 0%, 0%)" fill-opacity="1"><g transform="translate(233.109491, 95.185407)"><g><path d="M 0.796875 0.796875 L 0.796875 0 L 0 0 L 0 -1.59375 L 1.59375 -1.59375 L 1.59375 0.796875 Z M 0.796875 0.796875 "/></g></g></g><g fill="rgb(0%, 0%, 0%)" fill-opacity="1"><g transform="translate(236.148439, 95.185407)"><g/></g></g><g fill="rgb(0%, 0%, 0%)" fill-opacity="1"><g transform="translate(239.187386, 95.185407)"><g><path d="M 0.796875 0 L 0.796875 -0.796875 L 0 -0.796875 L 0 -6.40625 L 0.796875 -6.40625 L 0.796875 -7.203125 L 4 -7.203125 L 4 -6.40625 L 4.796875 -6.40625 L 4.796875 -5.59375 L 3.203125 -5.59375 L 3.203125 -6.40625 L 1.59375 -6.40625 L 1.59375 -0.796875 L 3.203125 -0.796875 L 3.203125 -1.59375 L 4.796875 -1.59375 L 4.796875 -0.796875 L 4 -0.796875 L 4 0 Z M 0.796875 0 "/></g></g></g><g fill="rgb(0%, 0%, 0%)" fill-opacity="1"><g transform="translate(245.425227, 95.185407)"><g><path d="M 0 2.40625 L 0 1.59375 L 0.796875 1.59375 L 0.796875 0.796875 L 1.59375 0.796875 L 1.59375 -0.796875 L 0.796875 -0.796875 L 0.796875 -2.40625 L 0 -2.40625 L 0 -5.59375 L 1.59375 -5.59375 L 1.59375 -1.59375 L 3.203125 -1.59375 L 3.203125 -5.59375 L 4.796875 -5.59375 L 4.796875 -2.40625 L 4 -2.40625 L 4 -0.796875 L 3.203125 -0.796875 L 3.203125 0.796875 L 2.40625 0.796875 L 2.40625 1.59375 L 1.59375 1.59375 L 1.59375 2.40625 Z M 0 2.40625 "/></g></g></g><g fill="rgb(0%, 0%, 0%)" fill-opacity="1"><g transform="translate(251.663067, 95.185407)"><g><path d="M 3.203125 -0.796875 L 3.203125 -4.796875 L 1.59375 -4.796875 L 1.59375 -0.796875 Z M 0 0 L 0 -8 L 1.59375 -8 L 1.59375 -5.59375 L 4 -5.59375 L 4 -4.796875 L 4.796875 -4.796875 L 4.796875 -0.796875 L 4 -0.796875 L 4 0 Z M 0 0 "/></g></g></g><g fill="rgb(0%, 0%, 0%)" fill-opacity="1"><g transform="translate(257.900907, 95.185407)"><g><path d="M 3.203125 -3.203125 L 3.203125 -4.796875 L 1.59375 -4.796875 L 1.59375 -3.203125 Z M 0.796875 0 L 0.796875 -0.796875 L 0 -0.796875 L 0 -4.796875 L 0.796875 -4.796875 L 0.796875 -5.59375 L 4 -5.59375 L 4 -4.796875 L 4.796875 -4.796875 L 4.796875 -2.40625 L 1.59375 -2.40625 L 1.59375 -0.796875 L 4 -0.796875 L 4 0 Z M 0.796875 0 "/></g></g></g><g fill="rgb(0%, 0%, 0%)" fill-opacity="1"><g transform="translate(264.138747, 95.185407)"><g><path d="M 0 0 L 0 -5.59375 L 1.59375 -5.59375 L 1.59375 -4 L 2.40625 -4 L 2.40625 -3.203125 L 1.59375 -3.203125 L 1.59375 0 Z M 2.40625 -4 L 2.40625 -5.59375 L 4 -5.59375 L 4 -4 Z M 2.40625 -4 "/></g></g></g><g fill="rgb(0%, 0%, 0%)" fill-opacity="1"><g transform="translate(135.863163, 106.701419)"><g><path d="M 0.796875 0 L 0.796875 -0.796875 L 0 -0.796875 L 0 -1.59375 L 1.59375 -1.59375 L 1.59375 -0.796875 L 3.203125 -0.796875 L 3.203125 -3.203125 L 0.796875 -3.203125 L 0.796875 -4 L 0 -4 L 0 -6.40625 L 0.796875 -6.40625 L 0.796875 -7.203125 L 4 -7.203125 L 4 -6.40625 L 4.796875 -6.40625 L 4.796875 -5.59375 L 3.203125 -5.59375 L 3.203125 -6.40625 L 1.59375 -6.40625 L 1.59375 -4 L 4 -4 L 4 -3.203125 L 4.796875 -3.203125 L 4.796875 -0.796875 L 4 -0.796875 L 4 0 Z M 0.796875 0 "/></g></g></g><g fill="rgb(0%, 0%, 0%)" fill-opacity="1"><g transform="translate(142.101003, 106.701419)"><g><path d="M 3.203125 -3.203125 L 3.203125 -4.796875 L 1.59375 -4.796875 L 1.59375 -3.203125 Z M 0.796875 0 L 0.796875 -0.796875 L 0 -0.796875 L 0 -4.796875 L 0.796875 -4.796875 L 0.796875 -5.59375 L 4 -5.59375 L 4 -4.796875 L 4.796875 -4.796875 L 4.796875 -2.40625 L 1.59375 -2.40625 L 1.59375 -0.796875 L 4 -0.796875 L 4 0 Z M 0.796875 0 "/></g></g></g><g fill="rgb(0%, 0%, 0%)" fill-opacity="1"><g transform="translate(148.338843, 106.701419)"><g><path d="M 0.796875 0 L 0.796875 -0.796875 L 0 -0.796875 L 0 -4.796875 L 0.796875 -4.796875 L 0.796875 -5.59375 L 4 -5.59375 L 4 -4.796875 L 1.59375 -4.796875 L 1.59375 -0.796875 L 4 -0.796875 L 4 0 Z M 0.796875 0 "/></g></g></g><g fill="rgb(0%, 0%, 0%)" fill-opacity="1"><g transform="translate(153.77696, 106.701419)"><g><path d="M 0.796875 0 L 0.796875 -0.796875 L 0 -0.796875 L 0 -5.59375 L 1.59375 -5.59375 L 1.59375 -0.796875 L 3.203125 -0.796875 L 3.203125 -5.59375 L 4.796875 -5.59375 L 4.796875 0 Z M 0.796875 0 "/></g></g></g><g fill="rgb(0%, 0%, 0%)" fill-opacity="1"><g transform="translate(160.0148, 106.701419)"><g><path d="M 0 0 L 0 -5.59375 L 1.59375 -5.59375 L 1.59375 -4 L 2.40625 -4 L 2.40625 -3.203125 L 1.59375 -3.203125 L 1.59375 0 Z M 2.40625 -4 L 2.40625 -5.59375 L 4 -5.59375 L 4 -4 Z M 2.40625 -4 "/></g></g></g><g fill="rgb(0%, 0%, 0%)" fill-opacity="1"><g transform="translate(165.452917, 106.701419)"><g><path d="M 0.796875 0 L 0.796875 -4.796875 L 0 -4.796875 L 0 -5.59375 L 2.40625 -5.59375 L 2.40625 0 Z M 0.796875 -6.40625 L 0.796875 -8 L 2.40625 -8 L 2.40625 -6.40625 Z M 0.796875 -6.40625 "/></g></g></g><g fill="rgb(0%, 0%, 0%)" fill-opacity="1"><g transform="translate(169.291588, 106.701419)"><g><path d="M 0.796875 0 L 0.796875 -0.796875 L 0 -0.796875 L 0 -7.203125 L 1.59375 -7.203125 L 1.59375 -5.59375 L 3.203125 -5.59375 L 3.203125 -4.796875 L 1.59375 -4.796875 L 1.59375 -0.796875 L 3.203125 -0.796875 L 3.203125 0 Z M 0.796875 0 "/></g></g></g><g fill="rgb(0%, 0%, 0%)" fill-opacity="1"><g transform="translate(173.929982, 106.701419)"><g><path d="M 0 2.40625 L 0 1.59375 L 0.796875 1.59375 L 0.796875 0.796875 L 1.59375 0.796875 L 1.59375 -0.796875 L 0.796875 -0.796875 L 0.796875 -2.40625 L 0 -2.40625 L 0 -5.59375 L 1.59375 -5.59375 L 1.59375 -1.59375 L 3.203125 -1.59375 L 3.203125 -5.59375 L 4.796875 -5.59375 L 4.796875 -2.40625 L 4 -2.40625 L 4 -0.796875 L 3.203125 -0.796875 L 3.203125 0.796875 L 2.40625 0.796875 L 2.40625 1.59375 L 1.59375 1.59375 L 1.59375 2.40625 Z M 0 2.40625 "/></g></g></g><g fill="rgb(0%, 0%, 0%)" fill-opacity="1"><g transform="translate(180.167822, 106.701419)"><g/></g></g><g fill="rgb(0%, 0%, 0%)" fill-opacity="1"><g transform="translate(183.20677, 106.701419)"><g/></g></g><g fill="rgb(0%, 0%, 0%)" fill-opacity="1"><g transform="translate(186.245718, 106.701419)"><g><path d="M 3.203125 -3.203125 L 3.203125 -4.796875 L 1.59375 -4.796875 L 1.59375 -3.203125 Z M 0.796875 0 L 0.796875 -0.796875 L 0 -0.796875 L 0 -4.796875 L 0.796875 -4.796875 L 0.796875 -5.59375 L 4 -5.59375 L 4 -4.796875 L 4.796875 -4.796875 L 4.796875 -2.40625 L 1.59375 -2.40625 L 1.59375 -0.796875 L 4 -0.796875 L 4 0 Z M 0.796875 0 "/></g></g></g><g fill="rgb(0%, 0%, 0%)" fill-opacity="1"><g transform="translate(192.483558, 106.701419)"><g><path d="M 0 0 L 0 -5.59375 L 4 -5.59375 L 4 -4.796875 L 4.796875 -4.796875 L 4.796875 0 L 3.203125 0 L 3.203125 -4.796875 L 1.59375 -4.796875 L 1.59375 0 Z M 0 0 "/></g></g></g><g fill="rgb(0%, 0%, 0%)" fill-opacity="1"><g transform="translate(198.721398, 106.701419)"><g><path d="M 0.796875 0 L 0.796875 -0.796875 L 0 -0.796875 L 0 -7.203125 L 1.59375 -7.203125 L 1.59375 -5.59375 L 3.203125 -5.59375 L 3.203125 -4.796875 L 1.59375 -4.796875 L 1.59375 -0.796875 L 3.203125 -0.796875 L 3.203125 0 Z M 0.796875 0 "/></g></g></g><g fill="rgb(0%, 0%, 0%)" fill-opacity="1"><g transform="translate(203.359792, 106.701419)"><g><path d="M 0 0 L 0 -8 L 1.59375 -8 L 1.59375 -5.59375 L 4 -5.59375 L 4 -4.796875 L 4.796875 -4.796875 L 4.796875 0 L 3.203125 0 L 3.203125 -4.796875 L 1.59375 -4.796875 L 1.59375 0 Z M 0 0 "/></g></g></g><g fill="rgb(0%, 0%, 0%)" fill-opacity="1"><g transform="translate(209.597632, 106.701419)"><g><path d="M 0.796875 0 L 0.796875 -0.796875 L 0 -0.796875 L 0 -5.59375 L 1.59375 -5.59375 L 1.59375 -0.796875 L 3.203125 -0.796875 L 3.203125 -5.59375 L 4.796875 -5.59375 L 4.796875 0 Z M 0.796875 0 "/></g></g></g><g fill="rgb(0%, 0%, 0%)" fill-opacity="1"><g transform="translate(215.835472, 106.701419)"><g><path d="M 0 0 L 0 -0.796875 L 2.40625 -0.796875 L 2.40625 -2.40625 L 0.796875 -2.40625 L 0.796875 -3.203125 L 0 -3.203125 L 0 -4.796875 L 0.796875 -4.796875 L 0.796875 -5.59375 L 4 -5.59375 L 4 -4.796875 L 1.59375 -4.796875 L 1.59375 -3.203125 L 3.203125 -3.203125 L 3.203125 -2.40625 L 4 -2.40625 L 4 -0.796875 L 3.203125 -0.796875 L 3.203125 0 Z M 0 0 "/></g></g></g><g fill="rgb(0%, 0%, 0%)" fill-opacity="1"><g transform="translate(221.273589, 106.701419)"><g><path d="M 0.796875 0 L 0.796875 -4.796875 L 0 -4.796875 L 0 -5.59375 L 2.40625 -5.59375 L 2.40625 0 Z M 0.796875 -6.40625 L 0.796875 -8 L 2.40625 -8 L 2.40625 -6.40625 Z M 0.796875 -6.40625 "/></g></g></g><g fill="rgb(0%, 0%, 0%)" fill-opacity="1"><g transform="translate(225.11226, 106.701419)"><g><path d="M 3.203125 -0.796875 L 3.203125 -2.40625 L 1.59375 -2.40625 L 1.59375 -0.796875 Z M 0.796875 0 L 0.796875 -0.796875 L 0 -0.796875 L 0 -2.40625 L 0.796875 -2.40625 L 0.796875 -3.203125 L 3.203125 -3.203125 L 3.203125 -4.796875 L 0.796875 -4.796875 L 0.796875 -5.59375 L 4 -5.59375 L 4 -4.796875 L 4.796875 -4.796875 L 4.796875 0 Z M 0.796875 0 "/></g></g></g><g fill="rgb(0%, 0%, 0%)" fill-opacity="1"><g transform="translate(231.3501, 106.701419)"><g><path d="M 0 0 L 0 -0.796875 L 2.40625 -0.796875 L 2.40625 -2.40625 L 0.796875 -2.40625 L 0.796875 -3.203125 L 0 -3.203125 L 0 -4.796875 L 0.796875 -4.796875 L 0.796875 -5.59375 L 4 -5.59375 L 4 -4.796875 L 1.59375 -4.796875 L 1.59375 -3.203125 L 3.203125 -3.203125 L 3.203125 -2.40625 L 4 -2.40625 L 4 -0.796875 L 3.203125 -0.796875 L 3.203125 0 Z M 0 0 "/></g></g></g><g fill="rgb(0%, 0%, 0%)" fill-opacity="1"><g transform="translate(236.788217, 106.701419)"><g><path d="M 0.796875 0 L 0.796875 -0.796875 L 0 -0.796875 L 0 -7.203125 L 1.59375 -7.203125 L 1.59375 -5.59375 L 3.203125 -5.59375 L 3.203125 -4.796875 L 1.59375 -4.796875 L 1.59375 -0.796875 L 3.203125 -0.796875 L 3.203125 0 Z M 0.796875 0 "/></g></g></g></svg>