<svg xmlns="http://www.w3.org/2000/svg" xmlns:xlink="http://www.w3.org/1999/xlink" width="1000" zoomAndPan="magnify" viewBox="0 0 750 177.000001" height="236" preserveAspectRatio="xMidYMid meet" version="1.0"><defs><g/><clipPath id="id1"><path d="M 2.105469 0 L 747.890625 0 L 747.890625 176.003906 L 2.105469 176.003906 Z M 2.105469 0 " clip-rule="nonzero"/></clipPath><clipPath id="id2"><path d="M 137.171875 69.207031 L 250.523438 69.207031 L 250.523438 166.765625 L 137.171875 166.765625 Z M 137.171875 69.207031 " clip-rule="nonzero"/></clipPath></defs><g clip-path="url(#id1)"><path fill="rgb(100%, 100%, 100%)" d="M 2.105469 0 L 747.894531 0 L 747.894531 183.464844 L 2.105469 183.464844 Z M 2.105469 0 " fill-opacity="1" fill-rule="nonzero"/><path fill="rgb(100%, 100%, 100%)" d="M 2.105469 0 L 747.894531 0 L 747.894531 176.003906 L 2.105469 176.003906 Z M 2.105469 0 " fill-opacity="1" fill-rule="nonzero"/><path fill="rgb(100%, 100%, 100%)" d="M 2.105469 0 L 747.894531 0 L 747.894531 176.003906 L 2.105469 176.003906 Z M 2.105469 0 " fill-opacity="1" fill-rule="nonzero"/><path fill="rgb(100%, 100%, 100%)" d="M 2.105469 0 L 747.894531 0 L 747.894531 176.003906 L 2.105469 176.003906 Z M 2.105469 0 " fill-opacity="1" fill-rule="nonzero"/><rect x="-75" width="900" fill="rgb(90.979004%, 55.288696%, 41.178894%)" y="-17.7" height="212.400001" fill-opacity="1"/><path fill="rgb(96.469116%, 92.549133%, 83.529663%)" d="M -10.492188 -2.707031 L 768.15625 -2.707031 L 768.15625 176.367188 L -10.492188 176.367188 L -10.492188 -2.707031 " fill-opacity="1" fill-rule="nonzero"/><path fill="rgb(0%, 0%, 0%)" d="M 768.4375 176.648438 L -10.777344 176.648438 L -10.777344 -2.992188 L 768.4375 -2.992188 L 768.4375 176.648438 M -10.210938 176.082031 L 767.875 176.082031 L 767.875 -2.425781 L -10.210938 -2.425781 L -10.210938 176.082031 " fill-opacity="1" fill-rule="nonzero"/></g><path fill="rgb(0%, 0%, 0%)" d="M 226.542969 42.242188 C 226.34375 43.261719 227.175781 44.285156 228.398438 44.527344 C 229.617188 44.761719 230.78125 44.125 230.980469 43.105469 L 231.011719 42.957031 L 226.574219 42.085938 Z M 226.234375 41.011719 C 226.128906 41.082031 226.050781 41.191406 226.023438 41.324219 C 226 41.453125 226.027344 41.578125 226.089844 41.679688 L 231.605469 42.765625 C 231.707031 42.695312 231.785156 42.585938 231.8125 42.453125 C 231.835938 42.328125 231.808594 42.199219 231.742188 42.097656 Z M 226.453125 40.027344 C 226.335938 40.097656 226.242188 40.210938 226.214844 40.355469 C 226.1875 40.484375 226.214844 40.609375 226.28125 40.710938 L 231.796875 41.796875 C 231.898438 41.726562 231.976562 41.617188 232.003906 41.488281 C 232.027344 41.347656 231.992188 41.210938 231.914062 41.101562 Z M 233.886719 33.292969 C 234.125 33.019531 234.148438 32.746094 233.960938 32.472656 C 233.84375 32.304688 233.707031 32.21875 233.554688 32.21875 C 233.515625 32.21875 233.476562 32.222656 233.4375 32.234375 C 233.011719 32.335938 232.507812 32.917969 232.023438 34.003906 C 232.753906 34 233.527344 33.707031 233.886719 33.292969 Z M 237.648438 24.859375 C 236.539062 23.203125 234.851562 22.078125 232.898438 21.699219 C 230.941406 21.316406 228.953125 21.722656 227.300781 22.839844 C 225.644531 23.957031 224.519531 25.65625 224.128906 27.617188 C 223.714844 29.726562 224.222656 31.910156 225.523438 33.613281 L 225.542969 33.648438 C 226.046875 34.828125 226.609375 37.027344 226.730469 37.523438 L 226.757812 37.53125 L 226.765625 37.65625 C 226.78125 38.316406 227.265625 38.886719 227.914062 39.015625 L 228.296875 39.089844 C 228.578125 37.972656 229.027344 35.851562 229.183594 34.042969 C 228.660156 34.058594 228.25 33.828125 227.949219 33.367188 C 227.449219 32.597656 227.445312 31.28125 227.941406 30.765625 C 228.085938 30.613281 228.398438 30.402344 228.878906 30.675781 C 229.492188 31.027344 229.621094 32.25 229.542969 33.664062 C 229.582031 33.652344 229.625 33.636719 229.667969 33.621094 C 229.910156 33.539062 230.132812 33.445312 230.339844 33.34375 C 230.121094 32.660156 230.316406 31.742188 230.625 31.132812 C 230.988281 30.398438 231.492188 30.078125 231.941406 30.292969 C 232.3125 30.46875 232.511719 30.828125 232.484375 31.277344 C 232.449219 31.945312 231.890625 32.835938 230.753906 33.488281 C 230.835938 33.621094 230.949219 33.730469 231.09375 33.804688 C 231.269531 33.894531 231.46875 33.953125 231.679688 33.980469 C 232.25 32.667969 232.863281 32.039062 233.363281 31.917969 C 233.699219 31.835938 234.007812 31.96875 234.226562 32.289062 C 234.5 32.683594 234.46875 33.125 234.132812 33.503906 C 233.695312 34.003906 232.75 34.363281 231.890625 34.324219 C 231.402344 35.53125 230.949219 37.265625 230.636719 39.546875 L 230.9375 39.605469 C 231.585938 39.734375 232.25 39.382812 232.519531 38.78125 L 232.566406 38.667969 L 232.59375 38.671875 C 232.894531 38.261719 234.253906 36.429688 235.171875 35.527344 L 235.203125 35.5 C 237.050781 34.414062 238.351562 32.582031 238.769531 30.472656 C 239.152344 28.511719 238.757812 26.515625 237.648438 24.859375 Z M 230.628906 33.1875 C 231.632812 32.605469 232.128906 31.832031 232.160156 31.257812 C 232.175781 31.035156 232.121094 30.738281 231.796875 30.582031 C 231.753906 30.5625 231.707031 30.550781 231.660156 30.550781 C 231.378906 30.550781 231.09375 30.917969 230.914062 31.277344 C 230.640625 31.828125 230.472656 32.617188 230.628906 33.1875 Z M 228.714844 30.957031 C 228.613281 30.898438 228.519531 30.871094 228.4375 30.871094 C 228.335938 30.871094 228.253906 30.910156 228.175781 30.988281 C 227.816406 31.363281 227.773438 32.5 228.222656 33.191406 C 228.402344 33.464844 228.699219 33.742188 229.210938 33.71875 C 229.300781 32.363281 229.207031 31.238281 228.714844 30.957031 Z M 228.617188 39.152344 L 230.320312 39.484375 C 230.628906 37.1875 231.070312 35.488281 231.550781 34.289062 C 231.335938 34.253906 231.128906 34.1875 230.945312 34.09375 C 230.734375 33.984375 230.578125 33.832031 230.464844 33.640625 C 230.253906 33.746094 230.023438 33.84375 229.777344 33.929688 C 229.6875 33.960938 229.601562 33.984375 229.515625 34.003906 C 229.347656 36.167969 228.742188 38.648438 228.617188 39.152344 Z M 239.085938 30.539062 C 238.65625 32.726562 237.304688 34.632812 235.386719 35.769531 C 234.410156 36.738281 232.886719 38.824219 232.804688 38.9375 C 232.578125 39.433594 232.128906 39.777344 231.613281 39.902344 L 231.800781 39.9375 C 232.070312 39.992188 232.246094 40.25 232.191406 40.519531 C 232.167969 40.640625 232.101562 40.738281 232.011719 40.808594 L 226.457031 39.714844 C 226.40625 39.621094 226.382812 39.503906 226.40625 39.386719 C 226.457031 39.121094 226.71875 38.949219 226.988281 39 L 227.179688 39.035156 C 226.75 38.730469 226.460938 38.242188 226.4375 37.695312 C 226.40625 37.5625 225.785156 35.054688 225.253906 33.792969 C 223.90625 32.015625 223.378906 29.746094 223.8125 27.554688 C 224.214844 25.507812 225.386719 23.738281 227.117188 22.570312 C 228.84375 21.40625 230.917969 20.980469 232.960938 21.378906 C 235 21.777344 236.761719 22.949219 237.917969 24.679688 C 239.074219 26.410156 239.492188 28.488281 239.085938 30.539062 Z M 222.5 32.753906 L 219.839844 34.484375 L 220.019531 34.757812 L 222.679688 33.023438 Z M 222.195312 37.753906 L 222.4375 37.972656 L 224.585938 35.648438 L 224.347656 35.429688 Z M 221.59375 29.972656 L 218.429688 30.25 L 218.457031 30.570312 L 221.625 30.292969 Z M 239.867188 33.933594 L 242.6875 35.386719 L 242.835938 35.101562 L 240.015625 33.644531 Z M 238 36.015625 L 239.796875 38.625 L 240.066406 38.445312 L 238.269531 35.832031 Z M 235.230469 37.71875 L 236.328125 40.683594 L 236.636719 40.574219 L 235.539062 37.605469 Z M 221.753906 26.855469 L 218.65625 26.160156 L 218.582031 26.476562 L 221.683594 27.167969 Z M 224.929688 21.789062 L 223.136719 19.179688 L 222.867188 19.363281 L 224.660156 21.972656 Z M 227.699219 20.089844 L 226.601562 17.121094 L 226.296875 17.234375 L 227.394531 20.199219 Z M 230.550781 19.421875 L 230.324219 16.265625 L 230 16.289062 L 230.226562 19.445312 Z M 241.242188 30.71875 L 241.1875 31.035156 L 244.320312 31.570312 L 244.375 31.25 Z M 222.910156 23.914062 L 220.089844 22.457031 L 219.941406 22.746094 L 222.761719 24.203125 Z M 241.199219 27.789062 L 244.363281 27.511719 L 244.335938 27.1875 L 241.167969 27.464844 Z M 240.421875 25.101562 L 243.082031 23.367188 L 242.902344 23.097656 L 240.242188 24.828125 Z M 240.726562 20.101562 L 240.484375 19.878906 L 238.335938 22.207031 L 238.574219 22.425781 Z M 237.664062 17.824219 L 237.371094 17.679688 L 235.953125 20.511719 L 236.246094 20.65625 Z M 233.472656 19.617188 L 233.152344 19.558594 L 233.769531 16.453125 L 234.089844 16.515625 L 233.472656 19.617188 " fill-opacity="1" fill-rule="nonzero"/><path fill="rgb(0%, 0%, 0%)" d="M 201.847656 85.503906 L 201.976562 85.605469 C 206.335938 80.320312 205.242188 69.039062 205.230469 68.925781 L 205.070312 68.941406 C 205.078125 69.054688 206.167969 80.269531 201.847656 85.503906 Z M 203.75 68.382812 L 203.589844 68.382812 C 203.589844 68.496094 203.675781 79.648438 198.5625 82.121094 L 198.636719 82.265625 C 203.839844 79.75 203.753906 68.496094 203.75 68.382812 Z M 191.003906 87.707031 L 191.027344 87.546875 C 184.179688 86.601562 179.949219 72.566406 179.90625 72.421875 L 179.75 72.46875 C 179.792969 72.613281 184.054688 86.746094 191.003906 87.707031 Z M 192.550781 83.195312 C 192.914062 83.195312 193.28125 83.167969 193.644531 83.109375 L 193.617188 82.949219 C 185.742188 84.183594 181.175781 71.59375 181.128906 71.464844 L 180.976562 71.519531 C 180.988281 71.550781 182.140625 74.761719 184.265625 77.777344 C 186.773438 81.34375 189.617188 83.195312 192.550781 83.195312 Z M 207.496094 77.25 L 207.332031 77.261719 L 210.851562 118.640625 L 211.015625 118.628906 Z M 204.578125 88.347656 L 207.492188 123.730469 L 204.820312 128.101562 L 201.121094 84.664062 L 200.957031 84.675781 L 204.699219 128.609375 L 207.648438 123.792969 L 207.660156 123.769531 L 204.738281 88.335938 Z M 191.8125 86.402344 L 195.289062 131.117188 L 195.449219 131.101562 L 191.976562 86.390625 Z M 188.941406 91.101562 L 191.796875 130.042969 L 188.652344 126.664062 L 185.046875 86.925781 L 184.886719 86.941406 L 188.492188 126.707031 L 188.496094 126.734375 L 191.992188 130.492188 L 189.105469 91.089844 Z M 181.136719 80.238281 L 184.441406 117.066406 L 184.28125 117.078125 L 180.972656 80.25 L 181.136719 80.238281 " fill-opacity="1" fill-rule="nonzero"/><path fill="rgb(0%, 0%, 0%)" d="M 200.792969 130.464844 C 200.792969 130.847656 200.484375 131.15625 200.101562 131.15625 C 199.714844 131.15625 199.40625 130.847656 199.40625 130.464844 C 199.40625 130.085938 199.714844 129.777344 200.101562 129.777344 C 200.484375 129.777344 200.792969 130.085938 200.792969 130.464844 Z M 200.167969 122.597656 C 200.167969 122.976562 199.859375 123.289062 199.476562 123.289062 C 199.09375 123.289062 198.78125 122.976562 198.78125 122.597656 C 198.78125 122.214844 199.09375 121.90625 199.476562 121.90625 C 199.859375 121.90625 200.167969 122.214844 200.167969 122.597656 Z M 199.539062 114.730469 C 199.539062 115.109375 199.226562 115.417969 198.84375 115.417969 C 198.460938 115.417969 198.152344 115.109375 198.152344 114.730469 C 198.152344 114.347656 198.460938 114.039062 198.84375 114.039062 C 199.226562 114.039062 199.539062 114.347656 199.539062 114.730469 Z M 198.90625 106.859375 C 198.90625 107.242188 198.597656 107.550781 198.214844 107.550781 C 197.832031 107.550781 197.523438 107.242188 197.523438 106.859375 C 197.523438 106.480469 197.832031 106.171875 198.214844 106.171875 C 198.597656 106.171875 198.90625 106.480469 198.90625 106.859375 Z M 198.226562 98.992188 C 198.226562 99.375 197.917969 99.683594 197.535156 99.683594 C 197.152344 99.683594 196.84375 99.375 196.84375 98.992188 C 196.84375 98.613281 197.152344 98.304688 197.535156 98.304688 C 197.917969 98.304688 198.226562 98.613281 198.226562 98.992188 Z M 197.617188 91.125 C 197.617188 91.503906 197.308594 91.8125 196.925781 91.8125 C 196.542969 91.8125 196.234375 91.503906 196.234375 91.125 C 196.234375 90.742188 196.542969 90.433594 196.925781 90.433594 C 197.308594 90.433594 197.617188 90.742188 197.617188 91.125 Z M 201.625 134.550781 L 199.363281 135.171875 L 195.027344 79.851562 L 196.9375 79.851562 L 196.976562 80.316406 L 196.84375 80.183594 L 196.613281 80.410156 L 197.019531 80.824219 Z M 206.742188 68.878906 L 206.4375 68.988281 C 208.679688 75.175781 205.605469 86.640625 205.070312 88.527344 L 197.332031 80.679688 L 197.234375 79.527344 L 194.675781 79.527344 L 194.808594 81.257812 L 194.710938 81.199219 L 188.980469 90.847656 C 180.292969 83.605469 179.128906 72.886719 179.117188 72.777344 L 178.792969 72.808594 C 178.804688 72.921875 179.992188 83.890625 188.921875 91.21875 L 189.066406 91.339844 L 194.839844 81.621094 L 199.054688 135.390625 L 199.070312 135.585938 L 201.976562 134.789062 L 197.375 81.1875 L 205.226562 89.148438 L 205.304688 88.886719 C 205.34375 88.753906 209.214844 75.703125 206.742188 68.878906 " fill-opacity="1" fill-rule="nonzero"/><g clip-path="url(#id2)"><path fill="rgb(90.979004%, 55.288696%, 41.178894%)" d="M 179.144531 166.507812 C 176.339844 166.289062 173.6875 165.953125 171.230469 165.558594 C 156.09375 163.128906 137.898438 149.078125 137.199219 140.578125 C 136.5 132.078125 148.824219 97.269531 148.824219 97.269531 C 148.824219 97.269531 148.007812 82.695312 148.824219 82.351562 C 149.636719 82.003906 155.679688 82.351562 155.679688 82.351562 C 155.929688 82.324219 156.195312 82.28125 156.46875 82.234375 C 156.355469 82.996094 155.117188 91.945312 157.679688 107.234375 C 158.863281 114.296875 161.003906 123.453125 164.824219 134.34375 C 157.0625 127.578125 150.765625 126.839844 150.699219 126.835938 L 150.664062 127.171875 C 150.730469 127.179688 157.164062 127.929688 165.050781 134.992188 L 165.050781 134.988281 C 168.363281 144.316406 172.910156 154.894531 179.144531 166.507812 Z M 238.699219 94.050781 C 233.800781 94.050781 229.828125 91.496094 229.828125 88.339844 C 229.828125 85.1875 233.800781 82.628906 238.699219 82.628906 C 243.597656 82.628906 247.566406 85.1875 247.566406 88.339844 C 247.566406 91.496094 243.597656 94.050781 238.699219 94.050781 Z M 223.722656 93.496094 C 223.640625 93.800781 215.140625 124.21875 202.03125 136.136719 L 201.800781 135.886719 C 214.417969 124.414062 222.757812 95.652344 223.359375 93.527344 L 215.421875 88.644531 L 220.304688 84.640625 L 210.753906 71.695312 L 211.027344 71.492188 L 220.769531 84.699219 L 216.007812 88.605469 L 223.757812 93.375 Z M 242.417969 81.285156 C 235.53125 79.691406 236.46875 71.183594 236.46875 71.183594 L 226.8125 72.316406 C 226.8125 72.316406 214.707031 70.644531 207.261719 69.417969 C 209.554688 76.164062 212.875 89.53125 210.289062 105.363281 C 206.546875 128.261719 199.75 134.277344 199.75 134.277344 C 199.75 134.277344 189.96875 126.757812 183.109375 108.832031 C 178.375 96.457031 178.296875 81.433594 178.699219 73.308594 C 172.363281 76.425781 162.085938 81.195312 156.644531 82.203125 L 156.816406 82.230469 C 156.800781 82.320312 155.359375 91.328125 158.019531 107.199219 C 160.238281 120.417969 165.792969 140.972656 179.546875 166.539062 C 186.59375 167.054688 194.582031 166.789062 202.867188 164.699219 L 200.507812 137.523438 C 186.453125 132.691406 169.300781 101.136719 169.128906 100.816406 L 169.074219 100.71875 L 174.21875 94.347656 L 169.0625 92.753906 L 174.347656 76.515625 L 174.671875 76.617188 L 169.496094 92.53125 L 174.800781 94.171875 L 169.484375 100.753906 C 170.558594 102.71875 187.167969 132.699219 200.722656 137.238281 L 200.828125 137.273438 L 203.203125 164.613281 C 211.714844 162.417969 220.53125 158.285156 228.957031 151.089844 C 226.128906 149.058594 223.742188 146.316406 222.242188 143.136719 C 219.390625 137.082031 224.726562 105.5625 227.003906 92.101562 C 227.53125 88.984375 227.878906 86.921875 227.921875 86.382812 C 228.160156 83.410156 232.371094 82.097656 232.550781 82.042969 L 232.648438 82.367188 C 232.609375 82.378906 228.484375 83.667969 228.261719 86.410156 C 228.21875 86.964844 227.867188 89.03125 227.339844 92.160156 C 225.066406 105.585938 219.746094 137.035156 222.550781 142.992188 C 224.054688 146.183594 226.464844 148.925781 229.320312 150.933594 C 231.058594 150.511719 242.070312 147.320312 246.078125 133.117188 C 250.4375 117.679688 250.523438 87.667969 250.523438 87.667969 C 250.523438 87.667969 249.304688 82.878906 242.417969 81.285156 " fill-opacity="1" fill-rule="nonzero"/></g><path fill="rgb(100%, 100%, 100%)" d="M 206.65625 152.390625 C 205.421875 152.390625 204.425781 153.382812 204.425781 154.609375 C 204.425781 155.832031 205.421875 156.824219 206.65625 156.824219 C 207.886719 156.824219 208.882812 155.832031 208.882812 154.609375 C 208.882812 153.382812 207.886719 152.390625 206.65625 152.390625 Z M 246.167969 101.660156 C 245.019531 102.101562 244.015625 103.550781 243.925781 104.902344 C 243.832031 106.25 244.6875 106.984375 245.835938 106.542969 C 246.984375 106.101562 247.992188 104.652344 248.082031 103.300781 C 248.175781 101.953125 247.320312 101.21875 246.167969 101.660156 Z M 247.078125 94.996094 C 245.933594 95.4375 244.925781 96.886719 244.832031 98.234375 C 244.742188 99.585938 245.597656 100.320312 246.746094 99.878906 C 247.894531 99.4375 248.902344 97.984375 248.992188 96.636719 C 249.085938 95.289062 248.230469 94.554688 247.078125 94.996094 Z M 207.578125 140.398438 C 207.578125 141.621094 206.578125 142.617188 205.347656 142.617188 C 204.117188 142.617188 203.117188 141.621094 203.117188 140.398438 C 203.117188 139.171875 204.117188 138.179688 205.347656 138.179688 C 206.578125 138.179688 207.578125 139.171875 207.578125 140.398438 " fill-opacity="1" fill-rule="nonzero"/><path fill="rgb(100%, 71.759033%, 51.759338%)" d="M 208.273438 57.484375 C 206.648438 63.671875 205.832031 65.925781 202.347656 67.546875 L 202.382812 69.109375 C 202.382812 69.109375 201.359375 80.324219 196.476562 81.136719 C 191.59375 81.945312 185.957031 79.515625 183.109375 71.996094 C 180.261719 64.480469 178.519531 59.796875 178.519531 59.796875 L 175.964844 57.890625 C 175.964844 57.890625 172.183594 59.335938 168.40625 54.824219 C 165.730469 51.628906 165.214844 48.492188 167.003906 46.707031 C 167.734375 45.976562 168.859375 45.46875 170.386719 45.28125 C 170.386719 45.28125 171.628906 43.804688 173.570312 41.871094 C 174.910156 40.539062 177.011719 39.75 177.53125 35.972656 C 178.8125 26.722656 179.21875 26.546875 180.03125 26.257812 C 180.03125 26.257812 180.378906 21.230469 186.015625 23.308594 C 191.652344 25.390625 204.027344 27.707031 198.050781 22.621094 C 198.238281 22.726562 204.226562 26.296875 205.484375 32.273438 C 205.558594 32.632812 205.632812 32.980469 205.703125 33.324219 C 206.824219 38.828125 207.34375 42.617188 208.273438 44.359375 C 209.265625 46.210938 209.902344 51.296875 208.273438 57.484375 " fill-opacity="1" fill-rule="nonzero"/><path fill="rgb(0%, 0%, 0%)" d="M 205.148438 56.398438 C 204.730469 58.511719 203.710938 60.8125 201.445312 62.429688 C 196.097656 66.246094 186.800781 57.367188 188.515625 57.511719 C 190.230469 57.65625 194.382812 57.253906 198.695312 55.921875 C 201.402344 55.085938 203.273438 53.363281 204.285156 52.195312 C 204.890625 51.503906 205.191406 51.007812 205.191406 51.007812 C 205.191406 51.007812 205.722656 53.53125 205.148438 56.398438 " fill-opacity="1" fill-rule="nonzero"/><path fill="rgb(100%, 100%, 100%)" d="M 204.453125 54.601562 C 204.621094 53.582031 204.449219 52.722656 204.285156 52.195312 C 203.273438 53.363281 201.402344 55.085938 198.695312 55.921875 C 194.382812 57.253906 190.230469 57.65625 188.515625 57.511719 C 186.800781 57.367188 196.097656 66.246094 201.445312 62.429688 C 203.710938 60.8125 204.730469 58.511719 205.148438 56.398438 C 204.925781 54.332031 204.453125 54.601562 204.453125 54.601562 Z M 191.566406 46 C 191.566406 46 188.496094 42.601562 184.429688 43.46875 C 180.367188 44.335938 181.410156 50.378906 186.464844 49.960938 C 191.523438 49.542969 191.566406 46 191.566406 46 Z M 199.527344 43.605469 C 199.527344 43.605469 199.136719 38.707031 202.101562 37.320312 C 205.066406 35.929688 206.503906 39.269531 205.804688 41.480469 C 205.109375 43.691406 202.667969 45.863281 199.527344 43.605469 " fill-opacity="1" fill-rule="nonzero"/><path fill="rgb(0%, 0%, 0%)" d="M 204.730469 54.453125 L 204.59375 54.363281 C 204.546875 54.433594 199.964844 61.113281 191.902344 59.488281 L 191.871094 59.644531 C 192.757812 59.824219 193.601562 59.902344 194.402344 59.902344 C 200.992188 59.902344 204.6875 54.515625 204.730469 54.453125 Z M 199.335938 68.53125 C 201.570312 68.3125 202.410156 67.703125 202.445312 67.675781 L 202.25 67.417969 C 202.242188 67.421875 201.433594 68 199.304688 68.210938 C 197.128906 68.421875 186.636719 65.652344 185.449219 65.019531 C 184.1875 64.34375 180.71875 60.960938 180.683594 60.925781 L 180.453125 61.15625 C 180.597656 61.296875 183.992188 64.605469 185.296875 65.304688 C 186.570312 65.984375 196.308594 68.542969 199.042969 68.542969 C 199.152344 68.542969 199.25 68.539062 199.335938 68.53125 Z M 198.792969 50.078125 L 198.59375 49.820312 L 196.554688 51.371094 L 196.75 51.628906 Z M 202.132812 47.238281 L 202.121094 47.09375 L 201.972656 47.085938 C 200.789062 47.054688 198.453125 44.292969 197.652344 43.230469 L 197.394531 43.425781 C 197.511719 43.582031 200.203125 47.132812 201.8125 47.394531 C 201.820312 47.949219 201.777344 50.0625 200.640625 51.394531 L 200.886719 51.605469 C 202.28125 49.96875 202.136719 47.351562 202.132812 47.238281 Z M 174.007812 50.902344 C 171.195312 48.363281 168.640625 48.71875 168.535156 48.738281 L 168.582031 49.058594 C 168.609375 49.054688 171.089844 48.707031 173.789062 51.144531 Z M 184.882812 42.972656 C 181.078125 43.894531 181.804688 47.074219 181.804688 47.074219 C 181.804688 47.074219 182.804688 43.765625 185.40625 43.492188 C 185.921875 43.4375 186.472656 43.503906 187.023438 43.640625 C 186.488281 44.046875 185.820312 44.914062 186.132812 46.65625 C 186.628906 49.417969 190.152344 49.910156 189.855469 44.863281 C 190.863281 45.449219 191.566406 46 191.566406 46 C 191.566406 46 188.691406 42.046875 184.882812 42.972656 Z M 205.128906 38.046875 C 205.332031 38.695312 205.386719 39.515625 205.253906 40.425781 C 204.875 42.972656 202.230469 43.40625 201.765625 40.425781 C 201.507812 38.777344 201.875 37.785156 202.253906 37.226562 C 202.203125 37.253906 202.152344 37.285156 202.101562 37.320312 C 199.964844 38.710938 199.511719 43.230469 199.511719 43.230469 C 199.511719 43.230469 198.367188 39.039062 201.679688 36.8125 C 204.992188 34.585938 205.78125 39.007812 205.78125 39.007812 C 205.78125 39.007812 205.542969 38.535156 205.128906 38.046875 " fill-opacity="1" fill-rule="nonzero"/><path fill="rgb(0%, 0%, 0%)" d="M 175.050781 47.851562 C 176.390625 48.777344 177.300781 49.621094 177.300781 49.621094 L 176.527344 46.929688 Z M 207.796875 24.511719 C 207.0625 22.28125 205.007812 21.292969 202.15625 21.800781 C 197.957031 22.542969 194.363281 21.355469 190.890625 20.207031 C 188.304688 19.347656 185.859375 18.535156 183.230469 18.5 C 181.558594 18.476562 180.359375 18.964844 179.667969 19.949219 C 178.515625 21.585938 179.082031 24.113281 179.410156 25.195312 C 178.445312 24.410156 176.28125 22.152344 177.847656 18.738281 C 179.816406 14.441406 189.714844 16.089844 189.816406 16.105469 L 189.875 15.769531 C 189.457031 15.699219 179.617188 14.0625 177.535156 18.597656 C 175.871094 22.230469 178.183594 24.632812 179.207031 25.46875 C 178.019531 25.003906 176.90625 25.046875 175.902344 25.605469 C 172.703125 27.382812 171.640625 33.683594 171.59375 33.953125 L 171.933594 34.007812 C 171.941406 33.941406 173.011719 27.597656 176.066406 25.902344 C 176.839844 25.46875 177.6875 25.382812 178.589844 25.625 C 176.148438 26.277344 175.578125 29.117188 174.976562 32.105469 C 174.5 34.484375 174.003906 36.945312 172.589844 38.6875 C 171.71875 39.757812 170.75 40.285156 169.691406 40.246094 C 167.347656 40.160156 165.339844 37.335938 165.324219 37.308594 L 165.042969 37.503906 C 165.128906 37.625 167.167969 40.492188 169.679688 40.585938 C 169.71875 40.585938 169.757812 40.585938 169.796875 40.585938 C 170.917969 40.585938 171.945312 40.019531 172.855469 38.898438 C 174.324219 37.09375 174.828125 34.59375 175.3125 32.171875 C 175.992188 28.777344 176.582031 25.847656 179.695312 25.824219 L 180.078125 26.058594 L 179.910156 25.617188 C 179.890625 25.363281 179.777344 22.566406 182.769531 21.386719 C 185.859375 20.167969 191.570312 25.015625 191.628906 25.0625 L 191.851562 24.808594 C 191.609375 24.601562 185.925781 19.773438 182.640625 21.070312 C 180.457031 21.933594 179.816406 23.648438 179.636719 24.722656 C 179.335938 23.558594 179.003906 21.488281 179.945312 20.144531 C 180.570312 19.257812 181.664062 18.816406 183.222656 18.839844 C 185.800781 18.875 188.222656 19.679688 190.785156 20.527344 C 194.296875 21.691406 197.933594 22.894531 202.21875 22.132812 C 205.863281 21.484375 207.074219 23.414062 207.472656 24.621094 C 208.257812 27.007812 207.179688 30.15625 205.253906 31.09375 L 205.402344 31.398438 C 207.464844 30.394531 208.628906 27.046875 207.796875 24.511719 Z M 177.445312 14.867188 C 173.917969 15.773438 171.820312 17.109375 171.207031 18.835938 C 170.730469 20.171875 171.3125 21.394531 171.625 21.90625 C 171.460938 19.207031 173.855469 16.738281 177.445312 14.867188 Z M 209.667969 29.035156 C 209.179688 31.359375 207.265625 32.644531 205.703125 33.324219 C 205.632812 32.980469 205.558594 32.632812 205.484375 32.273438 C 205.097656 30.445312 204.269531 28.84375 203.300781 27.492188 C 202.144531 27.589844 200.617188 27.9375 198.644531 28.765625 C 192.890625 31.179688 187.367188 27.8125 185.042969 25.398438 C 182.96875 23.242188 180.882812 23.652344 180.460938 26.160156 C 180.714844 25.4375 181.058594 25.011719 181.523438 24.84375 C 182.710938 24.421875 184.550781 25.695312 187.984375 28.523438 C 192.785156 32.480469 198.269531 30.003906 198.324219 29.980469 L 198.46875 30.289062 C 198.433594 30.300781 196.660156 31.105469 194.234375 31.105469 C 192.304688 31.105469 189.96875 30.597656 187.765625 28.785156 C 184.503906 26.097656 182.660156 24.800781 181.636719 25.164062 C 181.121094 25.347656 180.773438 25.988281 180.546875 27.179688 L 180.378906 27.148438 L 180.355469 27.140625 C 180.207031 27.121094 179.398438 27.167969 178.433594 30.105469 C 178.183594 31.476562 177.894531 33.363281 177.53125 35.972656 C 177.121094 38.953125 176.230469 40.972656 175.21875 42.351562 L 175.21875 42.355469 C 175.21875 42.355469 172.566406 45.644531 170.808594 45.539062 C 170.808594 45.539062 169.882812 45.492188 169.433594 45.457031 C 168.382812 45.707031 167.574219 46.136719 167.003906 46.710938 C 163.121094 45.097656 156.832031 34.085938 161.722656 31.867188 C 166.953125 29.5 171.660156 22.269531 171.660156 22.269531 L 171.527344 22.375 C 171.472656 22.304688 170.199219 20.652344 170.886719 18.71875 C 171.582031 16.765625 174.003906 15.296875 178.082031 14.363281 L 178.121094 14.53125 C 179.46875 13.882812 180.957031 13.3125 182.53125 12.84375 C 188.921875 10.9375 196.1875 17.296875 199.207031 18.511719 C 202.230469 19.726562 206.125 17.414062 208.449219 18.859375 C 210.773438 20.300781 210.539062 24.929688 209.667969 29.035156 Z M 171.238281 45.847656 C 171.871094 46.0625 172.996094 46.515625 172.996094 46.515625 L 175.808594 44.601562 L 175.28125 42.558594 C 174.871094 43.09375 172.941406 45.53125 171.238281 45.847656 Z M 174.804688 47.601562 L 176.390625 46.613281 L 175.953125 44.917969 L 173.261719 46.746094 C 173.847656 47.0625 174.804688 47.601562 174.804688 47.601562 Z M 204.632812 32.164062 C 204.460938 31.90625 201.613281 30.027344 201.148438 30.109375 C 200.683594 30.199219 199.609375 30.257812 197.023438 33.523438 C 197.023438 33.523438 196.554688 36.414062 197.023438 36.414062 C 197.488281 36.414062 200.421875 32.800781 201.0625 32.800781 C 201.589844 32.800781 203.191406 33.621094 203.957031 33.914062 C 204.121094 33.976562 204.246094 34.015625 204.316406 34.015625 C 204.410156 34.015625 204.492188 33.910156 204.550781 33.75 C 204.734375 33.285156 204.765625 32.355469 204.632812 32.164062 Z M 189.84375 36.441406 C 189.84375 36.441406 189.175781 33.882812 188.21875 33.882812 C 187.257812 33.882812 183.773438 37.136719 182.507812 37.699219 C 181.246094 38.265625 180.675781 42.4375 180.984375 42.910156 C 181.289062 43.382812 185.414062 37.871094 189.84375 36.441406 Z M 201.148438 30.109375 C 200.683594 30.199219 199.609375 30.257812 197.023438 33.523438 C 197.023438 33.523438 196.554688 36.414062 197.023438 36.414062 C 197.488281 36.414062 200.421875 32.800781 201.0625 32.800781 C 201.589844 32.800781 203.191406 33.621094 203.957031 33.914062 C 204.121094 33.871094 204.320312 33.816406 204.550781 33.75 C 204.734375 33.285156 204.765625 32.355469 204.632812 32.164062 C 204.460938 31.90625 201.613281 30.027344 201.148438 30.109375 Z M 204.535156 51.09375 C 205.210938 50.601562 205.933594 49.976562 206.457031 49.503906 C 206.613281 49.359375 206.84375 49.554688 206.734375 49.738281 C 205.875 51.203125 204.097656 54.324219 199.390625 56.273438 C 194.652344 58.234375 189.265625 57.953125 186.8125 57.503906 C 186.605469 57.464844 186.617188 57.15625 186.828125 57.136719 C 188.464844 56.980469 191.292969 56.566406 193.167969 55.503906 C 195.722656 54.054688 199.289062 53.777344 199.832031 53.746094 C 199.878906 53.742188 199.921875 53.71875 199.953125 53.683594 C 202.421875 50.945312 203.289062 52 204.535156 51.09375 " fill-opacity="1" fill-rule="nonzero"/><path fill="rgb(100%, 71.759033%, 51.759338%)" d="M 243.550781 62.820312 C 243.683594 63.902344 246.90625 69.671875 247.691406 70.667969 C 248.476562 71.667969 249.347656 74.355469 247.386719 77.5625 C 245.425781 80.773438 243.421875 89.75 243.421875 89.75 C 237.011719 92.441406 232.960938 87.582031 232.960938 87.582031 L 232.351562 84.894531 C 232.351562 84.894531 227.945312 79.734375 227.46875 78.820312 C 226.988281 77.910156 224.371094 66.15625 227.46875 65.726562 C 230.5625 65.289062 235.617188 61.039062 235.617188 61.039062 C 235.617188 61.039062 238.582031 50.761719 239.191406 48.941406 C 239.800781 47.121094 240.585938 44.214844 242.808594 43.042969 C 245.035156 41.871094 246.558594 42.738281 245.863281 44.128906 C 245.164062 45.515625 240.5 61.039062 240.5 61.039062 C 242.984375 60.214844 243.421875 61.734375 243.550781 62.820312 " fill-opacity="1" fill-rule="nonzero"/><path fill="rgb(0%, 0%, 0%)" d="M 242.21875 74.976562 C 241.980469 75.203125 241.621094 75.484375 241.207031 75.804688 C 239.460938 77.164062 236.546875 79.433594 236.546875 82.769531 C 236.546875 86.820312 238.304688 88.660156 238.378906 88.734375 L 238.613281 88.511719 C 238.59375 88.492188 236.871094 86.679688 236.871094 82.769531 C 236.871094 79.59375 239.710938 77.382812 241.40625 76.0625 C 241.828125 75.734375 242.195312 75.449219 242.445312 75.210938 C 243.644531 74.054688 246.617188 74.039062 246.644531 74.039062 L 246.644531 73.714844 C 246.519531 73.714844 243.515625 73.730469 242.21875 74.976562 Z M 234.585938 66.820312 C 234.132812 67.300781 233.421875 67.925781 232.476562 68.378906 C 232.53125 68.859375 232.695312 70.671875 232.234375 72.054688 C 232.722656 72.519531 235.304688 75.117188 235.78125 78.714844 L 235.457031 78.757812 C 234.949219 74.914062 231.964844 72.246094 231.9375 72.222656 L 231.851562 72.148438 L 231.890625 72.046875 C 232.335938 70.816406 232.222656 69.113281 232.164062 68.519531 C 231.578125 68.761719 230.917969 68.933594 230.175781 68.964844 L 230.164062 68.640625 C 233.140625 68.515625 234.878906 65.957031 234.894531 65.929688 L 234.898438 65.933594 C 235.0625 65.597656 235.261719 65.347656 235.503906 65.230469 C 235.617188 65.175781 235.75 65.097656 235.902344 64.996094 C 236.582031 64.273438 236.878906 63.570312 236.785156 62.894531 C 236.632812 61.835938 235.546875 61.1875 235.535156 61.179688 L 235.703125 60.902344 C 235.75 60.929688 236.933594 61.628906 237.105469 62.847656 C 237.171875 63.316406 237.078125 63.792969 236.828125 64.273438 C 238.355469 62.988281 240.355469 60.953125 240.382812 60.929688 L 240.617188 61.152344 C 240.464844 61.304688 236.921875 64.910156 235.644531 65.523438 C 234.53125 66.058594 234.386719 70.851562 234.851562 71.90625 C 235.167969 72.617188 235.632812 72.945312 235.882812 73.078125 C 236.378906 69.910156 237.6875 67.972656 237.839844 67.757812 C 238.152344 67.3125 242.441406 65.023438 243.300781 64.570312 L 243.453125 64.855469 C 241 66.15625 238.289062 67.679688 238.105469 67.941406 C 237.957031 68.15625 236.636719 70.105469 236.175781 73.304688 C 236.25 73.585938 236.921875 75.984375 238.617188 76.375 C 238.746094 75.386719 239.332031 71.371094 240.421875 70.785156 C 240.84375 70.5625 241.492188 70.328125 242.242188 70.058594 C 243.523438 69.59375 245.117188 69.019531 246.175781 68.253906 L 246.367188 68.511719 C 245.273438 69.308594 243.652344 69.894531 242.351562 70.363281 C 241.613281 70.628906 240.976562 70.859375 240.578125 71.070312 C 239.707031 71.539062 239.085938 75.210938 238.917969 76.585938 L 238.898438 76.75 L 238.730469 76.726562 C 236.773438 76.4375 236.007812 73.9375 235.875 73.433594 C 235.636719 73.332031 234.96875 72.976562 234.554688 72.035156 C 234.21875 71.277344 234.132812 68.601562 234.585938 66.820312 " fill-opacity="1" fill-rule="nonzero"/><g fill="rgb(0%, 0%, 0%)" fill-opacity="1"><g transform="translate(284.413116, 61.192757)"><g><path d="M 0 0 L 0 -17.53125 L 3.890625 -17.53125 L 3.890625 -11.6875 L 7.796875 -11.6875 L 7.796875 -17.53125 L 11.6875 -17.53125 L 11.6875 0 L 7.796875 0 L 7.796875 -9.734375 L 3.890625 -9.734375 L 3.890625 0 Z M 0 0 "/></g></g></g><g fill="rgb(0%, 0%, 0%)" fill-opacity="1"><g transform="translate(299.603272, 61.192757)"><g><path d="M 7.796875 -1.953125 L 7.796875 -5.84375 L 3.890625 -5.84375 L 3.890625 -1.953125 Z M 1.953125 0 L 1.953125 -1.953125 L 0 -1.953125 L 0 -5.84375 L 1.953125 -5.84375 L 1.953125 -7.796875 L 7.796875 -7.796875 L 7.796875 -11.6875 L 1.953125 -11.6875 L 1.953125 -13.625 L 9.734375 -13.625 L 9.734375 -11.6875 L 11.6875 -11.6875 L 11.6875 0 Z M 1.953125 0 "/></g></g></g><g fill="rgb(0%, 0%, 0%)" fill-opacity="1"><g transform="translate(314.793428, 61.192757)"><g><path d="M 0 0 L 0 -13.625 L 3.890625 -13.625 L 3.890625 -9.734375 L 5.84375 -9.734375 L 5.84375 -7.796875 L 3.890625 -7.796875 L 3.890625 0 Z M 5.84375 -9.734375 L 5.84375 -13.625 L 9.734375 -13.625 L 9.734375 -9.734375 Z M 5.84375 -9.734375 "/></g></g></g><g fill="rgb(0%, 0%, 0%)" fill-opacity="1"><g transform="translate(328.036146, 61.192757)"><g><path d="M 0 0 L 0 -1.953125 L 5.84375 -1.953125 L 5.84375 -5.84375 L 1.953125 -5.84375 L 1.953125 -7.796875 L 0 -7.796875 L 0 -11.6875 L 1.953125 -11.6875 L 1.953125 -13.625 L 9.734375 -13.625 L 9.734375 -11.6875 L 3.890625 -11.6875 L 3.890625 -7.796875 L 7.796875 -7.796875 L 7.796875 -5.84375 L 9.734375 -5.84375 L 9.734375 -1.953125 L 7.796875 -1.953125 L 7.796875 0 Z M 0 0 "/></g></g></g><g fill="rgb(0%, 0%, 0%)" fill-opacity="1"><g transform="translate(341.278858, 61.192757)"><g><path d="M 0 0 L 0 -19.46875 L 3.890625 -19.46875 L 3.890625 -13.625 L 9.734375 -13.625 L 9.734375 -11.6875 L 11.6875 -11.6875 L 11.6875 0 L 7.796875 0 L 7.796875 -11.6875 L 3.890625 -11.6875 L 3.890625 0 Z M 0 0 "/></g></g></g><g fill="rgb(0%, 0%, 0%)" fill-opacity="1"><g transform="translate(356.469012, 61.192757)"><g/></g></g><g fill="rgb(0%, 0%, 0%)" fill-opacity="1"><g transform="translate(363.869401, 61.192757)"><g><path d="M 1.953125 0 L 1.953125 -1.953125 L 0 -1.953125 L 0 -3.890625 L 3.890625 -3.890625 L 3.890625 -1.953125 L 7.796875 -1.953125 L 7.796875 -7.796875 L 1.953125 -7.796875 L 1.953125 -9.734375 L 0 -9.734375 L 0 -15.578125 L 1.953125 -15.578125 L 1.953125 -17.53125 L 9.734375 -17.53125 L 9.734375 -15.578125 L 11.6875 -15.578125 L 11.6875 -13.625 L 7.796875 -13.625 L 7.796875 -15.578125 L 3.890625 -15.578125 L 3.890625 -9.734375 L 9.734375 -9.734375 L 9.734375 -7.796875 L 11.6875 -7.796875 L 11.6875 -1.953125 L 9.734375 -1.953125 L 9.734375 0 Z M 1.953125 0 "/></g></g></g><g fill="rgb(0%, 0%, 0%)" fill-opacity="1"><g transform="translate(379.059555, 61.192757)"><g><path d="M 0 0 L 0 -19.46875 L 3.890625 -19.46875 L 3.890625 -13.625 L 9.734375 -13.625 L 9.734375 -11.6875 L 11.6875 -11.6875 L 11.6875 0 L 7.796875 0 L 7.796875 -11.6875 L 3.890625 -11.6875 L 3.890625 0 Z M 0 0 "/></g></g></g><g fill="rgb(0%, 0%, 0%)" fill-opacity="1"><g transform="translate(394.249709, 61.192757)"><g><path d="M 7.796875 -1.953125 L 7.796875 -5.84375 L 3.890625 -5.84375 L 3.890625 -1.953125 Z M 1.953125 0 L 1.953125 -1.953125 L 0 -1.953125 L 0 -5.84375 L 1.953125 -5.84375 L 1.953125 -7.796875 L 7.796875 -7.796875 L 7.796875 -11.6875 L 1.953125 -11.6875 L 1.953125 -13.625 L 9.734375 -13.625 L 9.734375 -11.6875 L 11.6875 -11.6875 L 11.6875 0 Z M 1.953125 0 "/></g></g></g><g fill="rgb(0%, 0%, 0%)" fill-opacity="1"><g transform="translate(409.439863, 61.192757)"><g><path d="M 0 0 L 0 -13.625 L 3.890625 -13.625 L 3.890625 -9.734375 L 5.84375 -9.734375 L 5.84375 -7.796875 L 3.890625 -7.796875 L 3.890625 0 Z M 5.84375 -9.734375 L 5.84375 -13.625 L 9.734375 -13.625 L 9.734375 -9.734375 Z M 5.84375 -9.734375 "/></g></g></g><g fill="rgb(0%, 0%, 0%)" fill-opacity="1"><g transform="translate(422.682576, 61.192757)"><g><path d="M 0 0 L 0 -13.625 L 13.625 -13.625 L 13.625 -11.6875 L 15.578125 -11.6875 L 15.578125 0 L 11.6875 0 L 11.6875 -11.6875 L 9.734375 -11.6875 L 9.734375 0 L 5.84375 0 L 5.84375 -11.6875 L 3.890625 -11.6875 L 3.890625 0 Z M 0 0 "/></g></g></g><g fill="rgb(0%, 0%, 0%)" fill-opacity="1"><g transform="translate(441.767622, 61.192757)"><g><path d="M 7.796875 -1.953125 L 7.796875 -5.84375 L 3.890625 -5.84375 L 3.890625 -1.953125 Z M 1.953125 0 L 1.953125 -1.953125 L 0 -1.953125 L 0 -5.84375 L 1.953125 -5.84375 L 1.953125 -7.796875 L 7.796875 -7.796875 L 7.796875 -11.6875 L 1.953125 -11.6875 L 1.953125 -13.625 L 9.734375 -13.625 L 9.734375 -11.6875 L 11.6875 -11.6875 L 11.6875 0 Z M 1.953125 0 "/></g></g></g><g fill="rgb(32.939148%, 32.939148%, 32.939148%)" fill-opacity="1"><g transform="translate(300.329919, 92.477535)"><g><path d="M 1.078125 0 L 1.078125 -1.078125 L 0 -1.078125 L 0 -2.15625 L 2.15625 -2.15625 L 2.15625 -1.078125 L 4.296875 -1.078125 L 4.296875 -4.296875 L 1.078125 -4.296875 L 1.078125 -5.375 L 0 -5.375 L 0 -8.609375 L 1.078125 -8.609375 L 1.078125 -9.671875 L 5.375 -9.671875 L 5.375 -8.609375 L 6.453125 -8.609375 L 6.453125 -7.53125 L 4.296875 -7.53125 L 4.296875 -8.609375 L 2.15625 -8.609375 L 2.15625 -5.375 L 5.375 -5.375 L 5.375 -4.296875 L 6.453125 -4.296875 L 6.453125 -1.078125 L 5.375 -1.078125 L 5.375 0 Z M 1.078125 0 "/></g></g></g><g fill="rgb(32.939148%, 32.939148%, 32.939148%)" fill-opacity="1"><g transform="translate(308.709798, 92.477535)"><g><path d="M 4.296875 -1.078125 L 4.296875 -6.453125 L 2.15625 -6.453125 L 2.15625 -1.078125 Z M 1.078125 0 L 1.078125 -1.078125 L 0 -1.078125 L 0 -6.453125 L 1.078125 -6.453125 L 1.078125 -7.53125 L 5.375 -7.53125 L 5.375 -6.453125 L 6.453125 -6.453125 L 6.453125 -1.078125 L 5.375 -1.078125 L 5.375 0 Z M 1.078125 0 "/></g></g></g><g fill="rgb(32.939148%, 32.939148%, 32.939148%)" fill-opacity="1"><g transform="translate(317.089677, 92.477535)"><g><path d="M 0 0 L 0 -9.671875 L 1.078125 -9.671875 L 1.078125 -10.75 L 4.296875 -10.75 L 4.296875 -9.671875 L 2.15625 -9.671875 L 2.15625 -7.53125 L 4.296875 -7.53125 L 4.296875 -6.453125 L 2.15625 -6.453125 L 2.15625 0 Z M 0 0 "/></g></g></g><g fill="rgb(32.939148%, 32.939148%, 32.939148%)" fill-opacity="1"><g transform="translate(323.32105, 92.477535)"><g><path d="M 1.078125 0 L 1.078125 -1.078125 L 0 -1.078125 L 0 -9.671875 L 2.15625 -9.671875 L 2.15625 -7.53125 L 4.296875 -7.53125 L 4.296875 -6.453125 L 2.15625 -6.453125 L 2.15625 -1.078125 L 4.296875 -1.078125 L 4.296875 0 Z M 1.078125 0 "/></g></g></g><g fill="rgb(32.939148%, 32.939148%, 32.939148%)" fill-opacity="1"><g transform="translate(329.552423, 92.477535)"><g><path d="M 0 0 L 0 -7.53125 L 2.15625 -7.53125 L 2.15625 -1.078125 L 3.21875 -1.078125 L 3.21875 -7.53125 L 5.375 -7.53125 L 5.375 -1.078125 L 6.453125 -1.078125 L 6.453125 -7.53125 L 8.609375 -7.53125 L 8.609375 -1.078125 L 7.53125 -1.078125 L 7.53125 0 Z M 0 0 "/></g></g></g><g fill="rgb(32.939148%, 32.939148%, 32.939148%)" fill-opacity="1"><g transform="translate(340.080808, 92.477535)"><g><path d="M 4.296875 -1.078125 L 4.296875 -3.21875 L 2.15625 -3.21875 L 2.15625 -1.078125 Z M 1.078125 0 L 1.078125 -1.078125 L 0 -1.078125 L 0 -3.21875 L 1.078125 -3.21875 L 1.078125 -4.296875 L 4.296875 -4.296875 L 4.296875 -6.453125 L 1.078125 -6.453125 L 1.078125 -7.53125 L 5.375 -7.53125 L 5.375 -6.453125 L 6.453125 -6.453125 L 6.453125 0 Z M 1.078125 0 "/></g></g></g><g fill="rgb(32.939148%, 32.939148%, 32.939148%)" fill-opacity="1"><g transform="translate(348.460687, 92.477535)"><g><path d="M 0 0 L 0 -7.53125 L 2.15625 -7.53125 L 2.15625 -5.375 L 3.21875 -5.375 L 3.21875 -4.296875 L 2.15625 -4.296875 L 2.15625 0 Z M 3.21875 -5.375 L 3.21875 -7.53125 L 5.375 -7.53125 L 5.375 -5.375 Z M 3.21875 -5.375 "/></g></g></g><g fill="rgb(32.939148%, 32.939148%, 32.939148%)" fill-opacity="1"><g transform="translate(355.766313, 92.477535)"><g><path d="M 4.296875 -4.296875 L 4.296875 -6.453125 L 2.15625 -6.453125 L 2.15625 -4.296875 Z M 1.078125 0 L 1.078125 -1.078125 L 0 -1.078125 L 0 -6.453125 L 1.078125 -6.453125 L 1.078125 -7.53125 L 5.375 -7.53125 L 5.375 -6.453125 L 6.453125 -6.453125 L 6.453125 -3.21875 L 2.15625 -3.21875 L 2.15625 -1.078125 L 5.375 -1.078125 L 5.375 0 Z M 1.078125 0 "/></g></g></g><g fill="rgb(32.939148%, 32.939148%, 32.939148%)" fill-opacity="1"><g transform="translate(364.146192, 92.477535)"><g/></g></g><g fill="rgb(32.939148%, 32.939148%, 32.939148%)" fill-opacity="1"><g transform="translate(368.229059, 92.477535)"><g><path d="M 4.296875 -4.296875 L 4.296875 -6.453125 L 2.15625 -6.453125 L 2.15625 -4.296875 Z M 1.078125 0 L 1.078125 -1.078125 L 0 -1.078125 L 0 -6.453125 L 1.078125 -6.453125 L 1.078125 -7.53125 L 5.375 -7.53125 L 5.375 -6.453125 L 6.453125 -6.453125 L 6.453125 -3.21875 L 2.15625 -3.21875 L 2.15625 -1.078125 L 5.375 -1.078125 L 5.375 0 Z M 1.078125 0 "/></g></g></g><g fill="rgb(32.939148%, 32.939148%, 32.939148%)" fill-opacity="1"><g transform="translate(376.608938, 92.477535)"><g><path d="M 0 0 L 0 -7.53125 L 5.375 -7.53125 L 5.375 -6.453125 L 6.453125 -6.453125 L 6.453125 0 L 4.296875 0 L 4.296875 -6.453125 L 2.15625 -6.453125 L 2.15625 0 Z M 0 0 "/></g></g></g><g fill="rgb(32.939148%, 32.939148%, 32.939148%)" fill-opacity="1"><g transform="translate(384.988817, 92.477535)"><g><path d="M 4.296875 -1.078125 L 4.296875 -6.453125 L 2.15625 -6.453125 L 2.15625 -1.078125 Z M 1.078125 3.21875 L 1.078125 2.15625 L 4.296875 2.15625 L 4.296875 0 L 1.078125 0 L 1.078125 -1.078125 L 0 -1.078125 L 0 -6.453125 L 1.078125 -6.453125 L 1.078125 -7.53125 L 6.453125 -7.53125 L 6.453125 2.15625 L 5.375 2.15625 L 5.375 3.21875 Z M 1.078125 3.21875 "/></g></g></g><g fill="rgb(32.939148%, 32.939148%, 32.939148%)" fill-opacity="1"><g transform="translate(393.368696, 92.477535)"><g><path d="M 1.078125 0 L 1.078125 -6.453125 L 0 -6.453125 L 0 -7.53125 L 3.21875 -7.53125 L 3.21875 0 Z M 1.078125 -8.609375 L 1.078125 -10.75 L 3.21875 -10.75 L 3.21875 -8.609375 Z M 1.078125 -8.609375 "/></g></g></g><g fill="rgb(32.939148%, 32.939148%, 32.939148%)" fill-opacity="1"><g transform="translate(398.525816, 92.477535)"><g><path d="M 0 0 L 0 -7.53125 L 5.375 -7.53125 L 5.375 -6.453125 L 6.453125 -6.453125 L 6.453125 0 L 4.296875 0 L 4.296875 -6.453125 L 2.15625 -6.453125 L 2.15625 0 Z M 0 0 "/></g></g></g><g fill="rgb(32.939148%, 32.939148%, 32.939148%)" fill-opacity="1"><g transform="translate(406.905695, 92.477535)"><g><path d="M 4.296875 -4.296875 L 4.296875 -6.453125 L 2.15625 -6.453125 L 2.15625 -4.296875 Z M 1.078125 0 L 1.078125 -1.078125 L 0 -1.078125 L 0 -6.453125 L 1.078125 -6.453125 L 1.078125 -7.53125 L 5.375 -7.53125 L 5.375 -6.453125 L 6.453125 -6.453125 L 6.453125 -3.21875 L 2.15625 -3.21875 L 2.15625 -1.078125 L 5.375 -1.078125 L 5.375 0 Z M 1.078125 0 "/></g></g></g><g fill="rgb(32.939148%, 32.939148%, 32.939148%)" fill-opacity="1"><g transform="translate(415.285574, 92.477535)"><g><path d="M 4.296875 -4.296875 L 4.296875 -6.453125 L 2.15625 -6.453125 L 2.15625 -4.296875 Z M 1.078125 0 L 1.078125 -1.078125 L 0 -1.078125 L 0 -6.453125 L 1.078125 -6.453125 L 1.078125 -7.53125 L 5.375 -7.53125 L 5.375 -6.453125 L 6.453125 -6.453125 L 6.453125 -3.21875 L 2.15625 -3.21875 L 2.15625 -1.078125 L 5.375 -1.078125 L 5.375 0 Z M 1.078125 0 "/></g></g></g><g fill="rgb(32.939148%, 32.939148%, 32.939148%)" fill-opacity="1"><g transform="translate(423.665453, 92.477535)"><g><path d="M 0 0 L 0 -7.53125 L 2.15625 -7.53125 L 2.15625 -5.375 L 3.21875 -5.375 L 3.21875 -4.296875 L 2.15625 -4.296875 L 2.15625 0 Z M 3.21875 -5.375 L 3.21875 -7.53125 L 5.375 -7.53125 L 5.375 -5.375 Z M 3.21875 -5.375 "/></g></g></g><g fill="rgb(32.939148%, 32.939148%, 32.939148%)" fill-opacity="1"><g transform="translate(430.971079, 92.477535)"><g><path d="M 1.078125 1.078125 L 1.078125 0 L 0 0 L 0 -2.15625 L 2.15625 -2.15625 L 2.15625 1.078125 Z M 1.078125 1.078125 "/></g></g></g><g fill="rgb(32.939148%, 32.939148%, 32.939148%)" fill-opacity="1"><g transform="translate(435.053946, 92.477535)"><g/></g></g><g fill="rgb(32.939148%, 32.939148%, 32.939148%)" fill-opacity="1"><g transform="translate(439.136813, 92.477535)"><g><path d="M 1.078125 0 L 1.078125 -1.078125 L 0 -1.078125 L 0 -8.609375 L 1.078125 -8.609375 L 1.078125 -9.671875 L 5.375 -9.671875 L 5.375 -8.609375 L 6.453125 -8.609375 L 6.453125 -7.53125 L 4.296875 -7.53125 L 4.296875 -8.609375 L 2.15625 -8.609375 L 2.15625 -1.078125 L 4.296875 -1.078125 L 4.296875 -2.15625 L 6.453125 -2.15625 L 6.453125 -1.078125 L 5.375 -1.078125 L 5.375 0 Z M 1.078125 0 "/></g></g></g><g fill="rgb(32.939148%, 32.939148%, 32.939148%)" fill-opacity="1"><g transform="translate(447.516691, 92.477535)"><g><path d="M 0 3.21875 L 0 2.15625 L 1.078125 2.15625 L 1.078125 1.078125 L 2.15625 1.078125 L 2.15625 -1.078125 L 1.078125 -1.078125 L 1.078125 -3.21875 L 0 -3.21875 L 0 -7.53125 L 2.15625 -7.53125 L 2.15625 -2.15625 L 4.296875 -2.15625 L 4.296875 -7.53125 L 6.453125 -7.53125 L 6.453125 -3.21875 L 5.375 -3.21875 L 5.375 -1.078125 L 4.296875 -1.078125 L 4.296875 1.078125 L 3.21875 1.078125 L 3.21875 2.15625 L 2.15625 2.15625 L 2.15625 3.21875 Z M 0 3.21875 "/></g></g></g><g fill="rgb(32.939148%, 32.939148%, 32.939148%)" fill-opacity="1"><g transform="translate(455.89657, 92.477535)"><g><path d="M 4.296875 -1.078125 L 4.296875 -6.453125 L 2.15625 -6.453125 L 2.15625 -1.078125 Z M 0 0 L 0 -10.75 L 2.15625 -10.75 L 2.15625 -7.53125 L 5.375 -7.53125 L 5.375 -6.453125 L 6.453125 -6.453125 L 6.453125 -1.078125 L 5.375 -1.078125 L 5.375 0 Z M 0 0 "/></g></g></g><g fill="rgb(32.939148%, 32.939148%, 32.939148%)" fill-opacity="1"><g transform="translate(464.276449, 92.477535)"><g><path d="M 4.296875 -4.296875 L 4.296875 -6.453125 L 2.15625 -6.453125 L 2.15625 -4.296875 Z M 1.078125 0 L 1.078125 -1.078125 L 0 -1.078125 L 0 -6.453125 L 1.078125 -6.453125 L 1.078125 -7.53125 L 5.375 -7.53125 L 5.375 -6.453125 L 6.453125 -6.453125 L 6.453125 -3.21875 L 2.15625 -3.21875 L 2.15625 -1.078125 L 5.375 -1.078125 L 5.375 0 Z M 1.078125 0 "/></g></g></g><g fill="rgb(32.939148%, 32.939148%, 32.939148%)" fill-opacity="1"><g transform="translate(472.656328, 92.477535)"><g><path d="M 0 0 L 0 -7.53125 L 2.15625 -7.53125 L 2.15625 -5.375 L 3.21875 -5.375 L 3.21875 -4.296875 L 2.15625 -4.296875 L 2.15625 0 Z M 3.21875 -5.375 L 3.21875 -7.53125 L 5.375 -7.53125 L 5.375 -5.375 Z M 3.21875 -5.375 "/></g></g></g><g fill="rgb(32.939148%, 32.939148%, 32.939148%)" fill-opacity="1"><g transform="translate(479.961954, 92.477535)"><g/></g></g><g fill="rgb(32.939148%, 32.939148%, 32.939148%)" fill-opacity="1"><g transform="translate(484.044821, 92.477535)"><g><path d="M 1.078125 0 L 1.078125 -1.078125 L 0 -1.078125 L 0 -2.15625 L 2.15625 -2.15625 L 2.15625 -1.078125 L 4.296875 -1.078125 L 4.296875 -4.296875 L 1.078125 -4.296875 L 1.078125 -5.375 L 0 -5.375 L 0 -8.609375 L 1.078125 -8.609375 L 1.078125 -9.671875 L 5.375 -9.671875 L 5.375 -8.609375 L 6.453125 -8.609375 L 6.453125 -7.53125 L 4.296875 -7.53125 L 4.296875 -8.609375 L 2.15625 -8.609375 L 2.15625 -5.375 L 5.375 -5.375 L 5.375 -4.296875 L 6.453125 -4.296875 L 6.453125 -1.078125 L 5.375 -1.078125 L 5.375 0 Z M 1.078125 0 "/></g></g></g><g fill="rgb(32.939148%, 32.939148%, 32.939148%)" fill-opacity="1"><g transform="translate(492.4247, 92.477535)"><g><path d="M 4.296875 -4.296875 L 4.296875 -6.453125 L 2.15625 -6.453125 L 2.15625 -4.296875 Z M 1.078125 0 L 1.078125 -1.078125 L 0 -1.078125 L 0 -6.453125 L 1.078125 -6.453125 L 1.078125 -7.53125 L 5.375 -7.53125 L 5.375 -6.453125 L 6.453125 -6.453125 L 6.453125 -3.21875 L 2.15625 -3.21875 L 2.15625 -1.078125 L 5.375 -1.078125 L 5.375 0 Z M 1.078125 0 "/></g></g></g><g fill="rgb(32.939148%, 32.939148%, 32.939148%)" fill-opacity="1"><g transform="translate(500.804579, 92.477535)"><g><path d="M 1.078125 0 L 1.078125 -1.078125 L 0 -1.078125 L 0 -6.453125 L 1.078125 -6.453125 L 1.078125 -7.53125 L 5.375 -7.53125 L 5.375 -6.453125 L 2.15625 -6.453125 L 2.15625 -1.078125 L 5.375 -1.078125 L 5.375 0 Z M 1.078125 0 "/></g></g></g><g fill="rgb(32.939148%, 32.939148%, 32.939148%)" fill-opacity="1"><g transform="translate(508.110205, 92.477535)"><g><path d="M 1.078125 0 L 1.078125 -1.078125 L 0 -1.078125 L 0 -7.53125 L 2.15625 -7.53125 L 2.15625 -1.078125 L 4.296875 -1.078125 L 4.296875 -7.53125 L 6.453125 -7.53125 L 6.453125 0 Z M 1.078125 0 "/></g></g></g><g fill="rgb(32.939148%, 32.939148%, 32.939148%)" fill-opacity="1"><g transform="translate(516.490084, 92.477535)"><g><path d="M 0 0 L 0 -7.53125 L 2.15625 -7.53125 L 2.15625 -5.375 L 3.21875 -5.375 L 3.21875 -4.296875 L 2.15625 -4.296875 L 2.15625 0 Z M 3.21875 -5.375 L 3.21875 -7.53125 L 5.375 -7.53125 L 5.375 -5.375 Z M 3.21875 -5.375 "/></g></g></g><g fill="rgb(32.939148%, 32.939148%, 32.939148%)" fill-opacity="1"><g transform="translate(523.79571, 92.477535)"><g><path d="M 1.078125 0 L 1.078125 -6.453125 L 0 -6.453125 L 0 -7.53125 L 3.21875 -7.53125 L 3.21875 0 Z M 1.078125 -8.609375 L 1.078125 -10.75 L 3.21875 -10.75 L 3.21875 -8.609375 Z M 1.078125 -8.609375 "/></g></g></g><g fill="rgb(32.939148%, 32.939148%, 32.939148%)" fill-opacity="1"><g transform="translate(528.95283, 92.477535)"><g><path d="M 1.078125 0 L 1.078125 -1.078125 L 0 -1.078125 L 0 -9.671875 L 2.15625 -9.671875 L 2.15625 -7.53125 L 4.296875 -7.53125 L 4.296875 -6.453125 L 2.15625 -6.453125 L 2.15625 -1.078125 L 4.296875 -1.078125 L 4.296875 0 Z M 1.078125 0 "/></g></g></g><g fill="rgb(32.939148%, 32.939148%, 32.939148%)" fill-opacity="1"><g transform="translate(535.184203, 92.477535)"><g><path d="M 0 3.21875 L 0 2.15625 L 1.078125 2.15625 L 1.078125 1.078125 L 2.15625 1.078125 L 2.15625 -1.078125 L 1.078125 -1.078125 L 1.078125 -3.21875 L 0 -3.21875 L 0 -7.53125 L 2.15625 -7.53125 L 2.15625 -2.15625 L 4.296875 -2.15625 L 4.296875 -7.53125 L 6.453125 -7.53125 L 6.453125 -3.21875 L 5.375 -3.21875 L 5.375 -1.078125 L 4.296875 -1.078125 L 4.296875 1.078125 L 3.21875 1.078125 L 3.21875 2.15625 L 2.15625 2.15625 L 2.15625 3.21875 Z M 0 3.21875 "/></g></g></g><g fill="rgb(32.939148%, 32.939148%, 32.939148%)" fill-opacity="1"><g transform="translate(543.564082, 92.477535)"><g/></g></g><g fill="rgb(32.939148%, 32.939148%, 32.939148%)" fill-opacity="1"><g transform="translate(547.646949, 92.477535)"><g><path d="M 4.296875 -4.296875 L 4.296875 -6.453125 L 2.15625 -6.453125 L 2.15625 -4.296875 Z M 1.078125 0 L 1.078125 -1.078125 L 0 -1.078125 L 0 -6.453125 L 1.078125 -6.453125 L 1.078125 -7.53125 L 5.375 -7.53125 L 5.375 -6.453125 L 6.453125 -6.453125 L 6.453125 -3.21875 L 2.15625 -3.21875 L 2.15625 -1.078125 L 5.375 -1.078125 L 5.375 0 Z M 1.078125 0 "/></g></g></g><g fill="rgb(32.939148%, 32.939148%, 32.939148%)" fill-opacity="1"><g transform="translate(556.026828, 92.477535)"><g><path d="M 0 0 L 0 -7.53125 L 5.375 -7.53125 L 5.375 -6.453125 L 6.453125 -6.453125 L 6.453125 0 L 4.296875 0 L 4.296875 -6.453125 L 2.15625 -6.453125 L 2.15625 0 Z M 0 0 "/></g></g></g><g fill="rgb(32.939148%, 32.939148%, 32.939148%)" fill-opacity="1"><g transform="translate(564.406707, 92.477535)"><g><path d="M 1.078125 0 L 1.078125 -1.078125 L 0 -1.078125 L 0 -9.671875 L 2.15625 -9.671875 L 2.15625 -7.53125 L 4.296875 -7.53125 L 4.296875 -6.453125 L 2.15625 -6.453125 L 2.15625 -1.078125 L 4.296875 -1.078125 L 4.296875 0 Z M 1.078125 0 "/></g></g></g><g fill="rgb(32.939148%, 32.939148%, 32.939148%)" fill-opacity="1"><g transform="translate(570.63808, 92.477535)"><g><path d="M 0 0 L 0 -10.75 L 2.15625 -10.75 L 2.15625 -7.53125 L 5.375 -7.53125 L 5.375 -6.453125 L 6.453125 -6.453125 L 6.453125 0 L 4.296875 0 L 4.296875 -6.453125 L 2.15625 -6.453125 L 2.15625 0 Z M 0 0 "/></g></g></g><g fill="rgb(32.939148%, 32.939148%, 32.939148%)" fill-opacity="1"><g transform="translate(579.017959, 92.477535)"><g><path d="M 1.078125 0 L 1.078125 -1.078125 L 0 -1.078125 L 0 -7.53125 L 2.15625 -7.53125 L 2.15625 -1.078125 L 4.296875 -1.078125 L 4.296875 -7.53125 L 6.453125 -7.53125 L 6.453125 0 Z M 1.078125 0 "/></g></g></g><g fill="rgb(32.939148%, 32.939148%, 32.939148%)" fill-opacity="1"><g transform="translate(587.397837, 92.477535)"><g><path d="M 0 0 L 0 -1.078125 L 3.21875 -1.078125 L 3.21875 -3.21875 L 1.078125 -3.21875 L 1.078125 -4.296875 L 0 -4.296875 L 0 -6.453125 L 1.078125 -6.453125 L 1.078125 -7.53125 L 5.375 -7.53125 L 5.375 -6.453125 L 2.15625 -6.453125 L 2.15625 -4.296875 L 4.296875 -4.296875 L 4.296875 -3.21875 L 5.375 -3.21875 L 5.375 -1.078125 L 4.296875 -1.078125 L 4.296875 0 Z M 0 0 "/></g></g></g><g fill="rgb(32.939148%, 32.939148%, 32.939148%)" fill-opacity="1"><g transform="translate(594.703463, 92.477535)"><g><path d="M 1.078125 0 L 1.078125 -6.453125 L 0 -6.453125 L 0 -7.53125 L 3.21875 -7.53125 L 3.21875 0 Z M 1.078125 -8.609375 L 1.078125 -10.75 L 3.21875 -10.75 L 3.21875 -8.609375 Z M 1.078125 -8.609375 "/></g></g></g><g fill="rgb(32.939148%, 32.939148%, 32.939148%)" fill-opacity="1"><g transform="translate(599.860583, 92.477535)"><g><path d="M 4.296875 -1.078125 L 4.296875 -3.21875 L 2.15625 -3.21875 L 2.15625 -1.078125 Z M 1.078125 0 L 1.078125 -1.078125 L 0 -1.078125 L 0 -3.21875 L 1.078125 -3.21875 L 1.078125 -4.296875 L 4.296875 -4.296875 L 4.296875 -6.453125 L 1.078125 -6.453125 L 1.078125 -7.53125 L 5.375 -7.53125 L 5.375 -6.453125 L 6.453125 -6.453125 L 6.453125 0 Z M 1.078125 0 "/></g></g></g><g fill="rgb(32.939148%, 32.939148%, 32.939148%)" fill-opacity="1"><g transform="translate(608.240462, 92.477535)"><g><path d="M 0 0 L 0 -1.078125 L 3.21875 -1.078125 L 3.21875 -3.21875 L 1.078125 -3.21875 L 1.078125 -4.296875 L 0 -4.296875 L 0 -6.453125 L 1.078125 -6.453125 L 1.078125 -7.53125 L 5.375 -7.53125 L 5.375 -6.453125 L 2.15625 -6.453125 L 2.15625 -4.296875 L 4.296875 -4.296875 L 4.296875 -3.21875 L 5.375 -3.21875 L 5.375 -1.078125 L 4.296875 -1.078125 L 4.296875 0 Z M 0 0 "/></g></g></g><g fill="rgb(32.939148%, 32.939148%, 32.939148%)" fill-opacity="1"><g transform="translate(615.546088, 92.477535)"><g><path d="M 1.078125 0 L 1.078125 -1.078125 L 0 -1.078125 L 0 -9.671875 L 2.15625 -9.671875 L 2.15625 -7.53125 L 4.296875 -7.53125 L 4.296875 -6.453125 L 2.15625 -6.453125 L 2.15625 -1.078125 L 4.296875 -1.078125 L 4.296875 0 Z M 1.078125 0 "/></g></g></g></svg>